<?xml version="1.0" encoding="UTF-8"?><svg id="Layer_1" xmlns="http://www.w3.org/2000/svg" viewBox="0 0 150 21.14"><path d="m4.97,8.01V0H0v20.81h4.84v-3.75c.49,2.71,2.19,4.06,5.07,4.06,4.86,0,5.96-1.17,5.96-6.97v-2.26c0-5.83-1.07-6.97-5.7-6.97-3.12,0-4.63.68-5.2,3.1Zm.03,7.31v-4.03c.13-1.4,1.04-2.08,2.81-2.08,2.39,0,2.84.52,2.84,2.84v2c0,2.26-.44,2.78-2.83,2.78-1.74,0-2.65-.52-2.81-1.51h0Zm12.54.99c0,4.21.94,4.97,6.03,4.81,2.45-.03,4.19-.99,4.86-3.07v2.76h4.94v-10.51c0-4.55-1.09-5.38-6.89-5.38h-1.2c-6.09,0-7.23.81-7.23,5.1v.62h4.94c-.05-1.79.39-2.11,2.84-2.11,2.19,0,2.6.31,2.6,2.11v.88l-4.94.03c-5.02,0-5.96.75-5.96,4.76Zm5.2.05c0-.96.26-1.14,1.61-1.14l4.08-.03v.68c0,1.22-.83,1.69-3.02,1.74h-.26c-2.03,0-2.42-.21-2.42-1.25Zm12.3-.42c0,4.34,1.09,5.18,6.82,5.18h1.2c6.55,0,7.75-.73,7.75-4.47,0-2.39-.6-3.82-3.07-4.55-1.35-.39-2.55-.7-5.1-1.12-1.69-.26-2.16-.57-2.16-1.22,0-.96.52-1.22,2.44-1.22s2.55.36,2.55,1.64v.47h4.94v-.47c0-4.45-1.09-5.25-6.89-5.25h-1.2c-5.9,0-7.05.7-7.05,4.68,0,2.08.55,3.25,2.68,4.08,1.56.6,3.93.96,4.84,1.14,2.29.42,2.84.83,2.84,1.46,0,.94-.6,1.2-2.83,1.2-2.42,0-3.07-.34-3.07-1.53v-.34h-4.68v.34Zm17.27-2.91c0,6.81,1.2,8.09,7.57,8.09h1.2c6.32,0,7.49-.83,7.49-5.25h-5.2c0,1.33-.44,1.61-2.86,1.61s-2.99-.44-2.99-2.71v-.08h11.18v-2.44c0-6.19-1.2-7.33-7.62-7.33h-1.2c-6.37,0-7.57,1.25-7.57,8.11Zm5.2-2v-.08c0-2.03.47-2.42,2.99-2.42s2.97.39,2.99,2.5h-5.98Zm13.37,9.78h4.94v-9.03c0-1.82.86-2.73,2.58-2.73,1.98,0,2.37.39,2.37,2.42v9.34h4.92l-.03-9.18c.05-1.72.91-2.58,2.57-2.58,1.98,0,2.31.39,2.31,2.42v9.34h4.94l-.03-10.09c0-4.89-.88-5.8-5.64-5.8-2.63,0-4.21,1.12-4.79,3.59-.21-2.97-1.07-3.59-5.02-3.59-2.31,0-3.64.94-4.19,3.28v-2.97h-4.94v15.58Zm26.53-7.78c0,6.81,1.2,8.09,7.6,8.09h1.2c6.27,0,7.44-.83,7.44-5.25h-5.18c0,1.33-.44,1.61-2.83,1.61-2.57,0-3.04-.44-3.04-2.71v-.08h11.18v-2.44c0-6.19-1.2-7.33-7.57-7.33h-1.2c-6.4,0-7.6,1.25-7.6,8.11Zm5.18-2v-.08c0-2.03.47-2.42,3.04-2.42,2.42,0,2.94.39,2.97,2.5h-6.01Zm13.34,9.78h4.94v-9.29c.03-1.66.94-2.47,2.73-2.47,2.29,0,2.71.44,2.71,2.83v8.92h4.94l-.03-10.09c0-4.89-.86-5.8-5.38-5.8-2.86,0-4.37.94-4.97,3.46v-3.15h-4.94v15.58Zm16.6-11.44h1.53v6.22c0,4.4,1.01,5.23,6.24,5.23h3.38v-4.42h-2.86c-1.53,0-1.82-.26-1.82-1.56v-5.46h4.45v-4.14h-4.45V1.87h-4.68v3.36h-1.79v4.14h0Zm13.03,11.45h4.45v-4.42h-4.45v4.42Z"/></svg>