<?xml version="1.0" encoding="UTF-8"?><svg id="Layer_1" xmlns="http://www.w3.org/2000/svg" viewBox="0 0 101.05 30.46"><path d="m38.71,26.37V4.09h4.09v22.28h-4.09Z"/><path d="m77.95,11.23h3.91v1.85c.83-1.48,2.77-2.28,4.43-2.28,2.06,0,3.72.89,4.49,2.52,1.2-1.85,2.8-2.52,4.8-2.52,2.8,0,5.48,1.69,5.48,5.76v9.82h-3.97v-8.99c0-1.63-.8-2.86-2.68-2.86-1.75,0-2.8,1.35-2.8,2.99v8.86h-4.06v-8.99c0-1.63-.83-2.86-2.68-2.86s-2.83,1.32-2.83,2.99v8.86h-4.09v-15.14Z"/><path d="m52.04,26.81c-4.61,0-7.95-3.42-7.95-8.01s3.33-8.02,7.95-8.02,7.95,3.53,7.95,8.02-3.34,8.01-7.95,8.01Zm0-12.32c-2.38,0-4.31,1.93-4.31,4.31s1.93,4.31,4.31,4.31,4.31-1.93,4.31-4.31-1.93-4.31-4.31-4.31Z"/><path d="m68.73,26.81c-4.61,0-7.95-3.42-7.95-8.01s3.33-8.02,7.95-8.02,7.95,3.53,7.95,8.02-3.34,8.01-7.95,8.01Zm0-12.37c-2.4,0-4.36,1.96-4.36,4.36s1.96,4.36,4.36,4.36,4.36-1.96,4.36-4.36c0-2.4-1.96-4.36-4.36-4.36Z"/><path d="m30.46,13.54h-8.91l7.71-4.45-1.69-2.94-7.71,4.45,4.45-7.71-2.94-1.7-4.45,7.71V0h-3.39v8.91L9.08,1.19l-2.93,1.69,4.45,7.71L2.89,6.15l-1.69,2.93,7.71,4.45H0v3.39h8.91l-7.71,4.45,1.69,2.94,7.71-4.45-4.45,7.71,2.94,1.69,4.45-7.71v8.91h3.39v-8.91l4.45,7.71,2.93-1.69-4.45-7.71,7.71,4.45,1.69-2.94-7.71-4.45h8.91v-3.39h0Zm-15.23,6.3c-2.55,0-4.63-2.07-4.63-4.63s2.07-4.63,4.63-4.63,4.63,2.07,4.63,4.63-2.07,4.63-4.63,4.63Z" fill="#625df5"/></svg>