<?xml version="1.0" encoding="UTF-8"?><svg id="Layer_1" xmlns="http://www.w3.org/2000/svg" viewBox="0 0 129.26 26"><path d="m52.9,25.04c-.39.09-.78.19-1.1.43-.09.07-.19.08-.29.1-.01,0-.02,0-.03,0,0,0-.01,0-.02,0-.44.08-.87.22-1.29.37-.13.05-.13-.02-.12-.09,0-.05,0-.09-.03-.11-.09-.04-.18.02-.23.07-.17.17-.36.17-.57.17-.03,0-.07,0-.1,0-.13,0-.23-.02-.32-.13-.13-.16-.31-.21-.51-.22-.31-.01-.39-.11-.49-.4-.08-.23-.12-.48-.16-.72-.03-.16-.05-.31-.09-.47-.04-.15.03-.31.09-.45.01-.02.02-.05.03-.07.13-.31.31-.58.63-.75.08-.04.17-.09.25-.14h0c.14-.09.28-.17.44-.23-.02-.08-.07-.11-.12-.14-.02-.02-.05-.03-.07-.05-.14-.16-.21-.3-.17-.54.04-.26.09-.53.14-.79h0c.05-.24.09-.47.13-.71,0-.01,0-.02,0-.03,0-.04,0-.07.03-.1.2-.27.29-.58.38-.9h0c.05-.17.1-.35.16-.51.07-.18.14-.35.21-.53.18-.47.37-.93.58-1.39.09-.19.18-.39.27-.59h0s0,0,0,0c.46-.99.92-1.97,1.42-2.94.32-.61.63-1.22.93-1.85.19-.41.36-.82.53-1.23h0c.06-.13.11-.27.17-.4.16-.39.34-.78.52-1.16l.04-.09c.24-.5.45-1.01.65-1.54-.06-.02-.12-.04-.18-.05-.12-.04-.24-.07-.36-.09-.62-.09-1.04-.49-1.4-.94-.05-.06-.1-.12-.16-.18-.11-.12-.22-.24-.29-.38-.04-.08-.08-.15-.13-.23h0c-.13-.24-.26-.47-.34-.73-.07-.26-.02-.48.15-.71.35-.47.79-.77,1.38-.82.16-.01.29-.09.42-.17.07-.04.13-.08.2-.11.3-.13.61-.21.93-.27.19-.04.38-.09.54-.2.22-.14.46-.21.7-.27.16-.04.31-.08.47-.12h0c.35-.09.69-.17,1.03-.27.03,0,.06-.02.09-.02h0c.19-.05.38-.1.54-.25.06-.06.16-.08.26-.1.03,0,.05-.01.08-.02,1.08-.29,2.17-.5,3.27-.67.26-.04.53-.07.8-.1.24-.02.47-.05.7-.08C64.35,0,65.2,0,66.04,0c.2,0,.41,0,.61,0,.58,0,1.15.11,1.71.23h.04c.43.1.87.2,1.26.43.52.32.92.73,1.13,1.32.04.12.05.23.05.35,0,.48-.04.96-.09,1.44h0c0,.1-.02.21-.03.31,0,.1-.01.19-.02.29h0c-.01.22-.03.44-.08.66-.1.42-.32.78-.64,1.07-.35.32-.73.56-1.14.8-.38.23-.72.55-.99.93,0,.01-.02.02-.02.04-.03.05-.06.09-.12.12-.27.13-.51.29-.76.45-.31.2-.62.41-.96.54-.18.07-.31.21-.44.35-.04.05-.09.1-.14.14-.15.15-.31.27-.54.25-.12-.01-.22.04-.3.11-.2.18-.44.28-.7.35-.18.05-.29.18-.4.32-.03.03-.05.07-.08.1-.07.05-.16.07-.24.08-.03,0-.06.01-.1.02.07.12.17.14.28.16.02,0,.05,0,.07.01.19.09.37.18.56.27.26.13.52.25.78.38.74.37,1.43.82,1.98,1.44.55.63.99,1.33,1.16,2.16.04.19.07.39.09.59h0c.02.17.04.34.08.51h0s.01.07.09.07c.03-.07.06-.13.09-.2h0c.08-.19.17-.38.24-.57.24-.62.54-1.2.84-1.79.17-.34.35-.68.51-1.02.24-.52.53-1,.82-1.49h0c.12-.21.24-.41.36-.62.26-.45.53-.9.81-1.35.15-.24.3-.48.45-.72.42-.69.83-1.39,1.24-2.09.13-.23.26-.46.39-.7h0c.06-.12.13-.23.19-.34,0,0,0-.01.01-.02h0s.02-.03.02-.04c.15-.44.38-.82.69-1.17.28-.32.83-.52,1.2-.16.04.04.09.09.13.13h0c.15.14.3.28.41.46.16.26.28.28.58.22.31-.06.62-.13.93-.19h0c.81-.17,1.61-.33,2.42-.47.82-.14,1.63-.28,2.46-.37l.17-.02c.79-.09,1.58-.18,2.38-.18.21,0,.41.06.59.16.18.1.21.19.09.37-.04.07-.05.14-.05.22,0,.1,0,.2-.1.29-.03.02-.05.06-.06.1-.03.07-.07.14-.17.16-.04,0-.08.06-.08.11,0,.2-.07.38-.14.56h0c-.03.07-.06.15-.09.23-.06.18-.16.33-.35.43-.06.03-.12.07-.18.1h0c-.31.18-.62.35-.97.38-.23.02-.46.07-.69.12-.27.06-.55.12-.84.13-.25,0-.5.06-.76.12-.14.03-.27.06-.41.09-.53.09-1.06.22-1.59.35l-.13.03c-.67.16-1.33.36-1.98.58-.18.06-.37.11-.56.13-.24.03-.38.18-.51.36-.11.15-.19.31-.27.48-.09.18-.18.36-.3.52-.14.19-.28.36-.44.53-.67.66-1.18,1.43-1.59,2.28-.01.03-.03.06-.04.1h0s-.03.07-.04.11c.2-.02.4-.04.59-.07h0c.19-.02.37-.04.56-.06.08,0,.17-.02.25-.02.29-.02.58-.04.85-.18-.04-.11-.1-.13-.16-.15-.02,0-.04-.01-.06-.02-.3-.16-.34-.54-.06-.74.12-.08.25-.15.39-.19.71-.21,1.42-.41,2.16-.51.57-.08,1.14-.16,1.71-.25.15-.02.31-.03.46-.04.13,0,.27-.02.4-.03.05,0,.11-.01.16-.01.17-.01.34-.02.49-.15.07-.06.16-.05.24-.01.32.12.65.16.99.18.22.01.42.11.61.21.11.06.28.56.25.69-.02.1-.09.14-.18.14-.1,0-.21,0-.31,0-.21,0-.42,0-.62.01-.09,0-.19.02-.28.03-.17.02-.34.04-.51.03-.08,0-.15.04-.16.12-.02.16-.12.19-.25.22h-.03c-.44.12-.89.17-1.34.23-.1.01-.19.02-.29.04-.38.05-.56.09-.91.29.08.11.2.18.31.25.1.06.2.12.28.21.18.2.18.39-.04.55-.15.12-.32.23-.5.29-.99.34-1.99.63-3.02.79-.79.12-1.54.41-2.28.71-.32.13-.66.23-.99.32-.18.05-.3.13-.39.28-.17.28-.29.58-.41.89-.05.13-.1.27-.16.4-.09.21-.16.42-.24.64-.06.18-.13.37-.2.55-.05.11-.02.2.01.29.02.05.03.09.04.14.46.08.87-.08,1.25-.23l.06-.02c1.33-.51,2.68-.96,4.03-1.4.21-.07.41-.14.62-.21h0c.5-.17,1.01-.34,1.51-.5l.13-.04c.44-.14.89-.28,1.34-.34.12-.02.25-.04.37-.07.25-.05.51-.11.77-.09.14,0,.23-.06.31-.16.18-.21.4-.27.67-.28.6-.03,1.19-.18,1.75-.4.02,0,.03-.02.05-.02.03-.02.06-.03.08-.03.51-.03.74-.39.98-.76l.03-.05c.24-.37.49-.74.74-1.1h0c.19-.28.39-.56.57-.85.75-1.14,1.56-2.25,2.38-3.35.69-.93,1.36-1.86,2.03-2.8l.09-.12c.09-.12.18-.23.29-.33.35-.35.66-.73.87-1.19.06-.13.18-.22.32-.29.04-.02.08-.04.12-.05.12-.05.24-.1.34-.18.27-.22.56-.27.89-.31.19-.03.38-.02.57-.02.16,0,.33,0,.49-.01.27-.03.57.04.85.12.1.03.18.09.22.17.11.2.25.28.47.2.04-.02.09-.02.14-.02.01,0,.02,0,.04,0,.54-.02.83.22.89.75.01.11.03.22.04.33h0c.07.59.14,1.17.1,1.76-.05.62-.05,1.25-.06,1.87,0,.33,0,.67-.01,1-.01.38-.08.76-.16,1.14-.03.15-.03.31-.03.46h0c0,.09,0,.18,0,.27-.01.13.08.17.19.15.62-.11,1.25-.15,1.87-.14.16,0,.24-.1.31-.22.1-.18.23-.36.36-.53.19-.26.39-.53.5-.84,0-.03.03-.05.05-.07,0,0,.01-.01.02-.02.47-.49.93-.98,1.4-1.47.04-.04.07-.07.11-.11l.05-.05h0c.28-.29.55-.57.84-.83.47-.43.96-.85,1.51-1.18.1-.06.18-.14.26-.23h0c.06-.06.11-.11.17-.16.24-.19.5-.35.76-.51.27-.16.53-.33.77-.52.29-.23.6-.4.91-.57l.1-.05c.16-.09.3-.19.45-.3h0c.18-.13.35-.25.55-.35.29-.14.58-.23.9-.22.13,0,.27,0,.4,0,.42,0,.85,0,1.25.14.11.04.22.06.33.09.26.06.51.11.72.31.01.01.04.02.07.02.5.07.89.35,1.25.66.22.19.41.41.4.8-.01.52-.17,1-.32,1.47-.08.24-.16.48-.21.72v.02c-.03.07-.04.13-.01.22.07.21.11.41-.12.58-.11.08-.08.28-.03.41.1.31.03.58-.16.84,0,0,0,0,0,0,0,0,0,0,0,0-.01.01-.03.03-.03.04-.24.57-.75.68-1.26.79l-.07.02s-.1.01-.15.01c-.08,0-.17,0-.24.05-.02.01-.05.02-.07.01-.13-.06-.27-.11-.41-.16-.33-.11-.66-.22-.83-.58-.06-.14-.08-.29-.1-.45h0s-.01-.07-.02-.11c0-.06-.01-.11-.01-.17,0-.11,0-.21-.06-.33-.04-.08.02-.21.06-.33.01-.03.03-.07.04-.1.07-.17.14-.35.21-.52h0c.04-.1.08-.19.12-.29,0-.01.01-.03.02-.04.03-.05.06-.11,0-.16-.05-.04-.1-.03-.15,0-.02,0-.03.01-.05.02-.69.17-1.27.54-1.86.92-.08.05-.17.11-.25.16-.34.21-.66.45-.98.69-.25.18-.49.37-.75.54-.18.12-.37.24-.55.36-.34.22-.68.44-1.01.68-.06.05-.12.09-.18.14h0c-.29.21-.58.43-.82.69,0,0-.02.02-.02.02h0c-.06.06-.12.12-.07.22.04.08.11.09.19.1h.03c.4.09.8.04,1.2,0,.15-.02.3-.03.45-.04.42-.03.84-.08,1.25-.15.25-.04.51-.04.76-.04s.51,0,.75-.04c.38-.07.75-.04,1.12,0,.18.02.36.03.54.03.66.01,1.27.28,1.83.62.16.09.31.26.38.43.13.32.32.61.51.89.09.14.18.27.27.42.12.21.18.42.07.64-.14.29-.16.61-.17.91h0s0,0,0,0c-.04.63-.32,1.09-.8,1.51-.59.5-1.26.82-1.97,1.1-.31.12-.64.26-.92.41-.07.04-.14.08-.22.12h0c-.21.12-.42.24-.64.34-.43.2-.82.43-1.2.7-.04.03-.07.06-.1.1-.08.09-.16.19-.31.15-.1-.03-.18.02-.27.06-.07.04-.13.07-.21.07-.1,0-.17.06-.25.11-.03.03-.07.05-.1.07-.05.03-.11.08-.08.15.1.26-.1.29-.25.32h-.01s-.03,0-.03,0c-.13.02-.26.05-.41.03h-.05c-.2-.04-.43-.07-.62.04-.03.01-.06.02-.09.03-.1.03-.2.07-.17.24,0,.04-.11.13-.19.15-.07.02-.14.04-.21.07h0c-.11.04-.23.08-.34.1-.04,0-.08.01-.13.02-.17.02-.34.04-.43.23,0,0-.01,0-.02.01,0,0,0,0,0,0h0c-.3.05-.56.21-.81.37-.13.08-.26.16-.4.23-.06.03-.1.07-.14.11l-.02.02c-.14.15-.33.17-.51.19-.09,0-.18.02-.27.04-.02,0-.06-.03-.08-.05-.14-.14-.3-.23-.51-.2-.21.02-.28-.15-.3-.3-.02-.15-.07-.19-.2-.18-.15.01-.25-.03-.32-.17-.05-.08-.14-.16-.24-.21-.27-.16-.4-.44-.49-.7-.1-.26.04-.58.3-.72.17-.09.33-.21.48-.33h0c.21-.16.42-.32.67-.41.32-.11.61-.27.91-.43h0c.2-.11.41-.22.62-.32.29-.13.56-.31.82-.49.14-.09.27-.18.41-.27.19-.12.38-.23.57-.35.68-.42,1.37-.84,2.07-1.24.1-.06.2-.13.29-.21.12-.1.24-.2.39-.26.42-.17.81-.4,1.19-.63.17-.1.34-.21.52-.31.03-.02.06-.03.09-.04.13-.06.27-.12.28-.31-.04-.01-.08-.03-.12-.04-.08-.03-.17-.05-.25-.09-.14-.07-.28-.06-.42-.01-.02,0-.03.01-.05.02h0c-.14.05-.28.1-.42,0-.04-.03-.09,0-.13,0h0c-.22.12-.46.14-.69.17-.13.02-.27.03-.4.06-.25.06-.5.1-.78.08-.19-.02-.4.03-.6.08-.08.02-.17.04-.25.06-.02,0-.04.01-.06.02-.03.01-.06.02-.08.02-.23-.04-.45-.01-.68.01-.1.01-.21.03-.31.03-.38.02-.74.11-1.09.21-.52.14-.95,0-1.35-.28-.14-.1-.23-.26-.31-.42v-.02c-.06-.08-.11-.17-.16-.25h0c-.18-.29-.36-.59-.44-.93-.03-.12-.1-.16-.2-.16h-.06c-.37-.01-.74-.02-1.04.24-.07.06-.16.09-.25.11-.09.03-.18.05-.26.13-.31.27-.32.61-.29.94v.05c.02.16.04.3-.09.41-.08.08-.08.17-.08.27,0,.01,0,.03,0,.04,0,.08,0,.16,0,.23h0c0,.18-.01.36.01.53.04.27-.02.53-.08.78-.03.14-.06.28-.08.43,0,.08-.08.12-.14.16-.11-.12-.15-.27-.13-.43.02-.27-.02-.53-.07-.79,0,0,0-.02,0-.03,0-.05-.01-.11-.08-.09-.01,0-.02,0-.04,0-.07.01-.16.02-.15.12.02.12,0,.25-.01.37h0c-.01.11-.03.22-.02.34.03.35.03.7.02,1.05h0c0,.12,0,.25,0,.37,0,.06-.03.12-.07.17-.04.07-.09.14-.05.23.02.05.03.11.04.17,0,.07.02.15.06.22.06-.03.1-.09.14-.14.05-.07.1-.15.22-.16,0,.08.02.16.04.24h0c.04.15.08.3,0,.47-.02.05,0,.12.02.19h0s.02.08.03.12c.04.24-.03.45-.09.67-.02.08-.05.16-.06.24-.04.18-.06.35-.06.54,0,.15-.04.32-.17.38-.14.06-.18.19-.21.31-.04.12-.07.23-.2.29.11.12.08.25.05.38-.01.06-.03.11-.03.17,0,.09-.03.09-.08.08-.01,0-.03,0-.05,0-.08,0-.18.07-.23.13-.16.19-.34.15-.53.07-.27-.11-.4-.32-.43-.61-.01-.13-.02-.27-.02-.4,0-.05,0-.1,0-.15h0c.01-.14.03-.28-.09-.41,0-.25-.02-.5-.06-.76h0c-.03-.27-.07-.54-.05-.82.01-.21-.01-.41-.04-.61h0c-.02-.19-.05-.37-.04-.56.02-.59.01-1.19.01-1.78h0c0-.52,0-1.04,0-1.56,0-.14-.02-.28-.05-.42-.04-.19-.07-.37-.04-.57.02-.09-.06-.1-.13-.1h-.02c-.15,0-.3.03-.45.07-.06.02-.13.03-.19.04-.39.07-.77.18-1.15.29-.16.05-.33.09-.49.14-.02,0-.03.01-.05.02-.08.03-.17.06-.23-.07-.03-.07-.1-.03-.15,0h0c-.27.16-.57.24-.87.31-.22.06-.45.11-.66.2-.06.03-.13.04-.2.06-.13.03-.25.06-.36.16-.02.02-.07.05-.09,0-.06-.12-.13-.11-.23-.05h-.02c-.11.07-.22.12-.27.25-.09.2-.21.39-.33.57-.14.21-.28.43-.37.67-.11.29-.28.55-.55.75-.08.06-.13.18-.16.28-.05.22-.15.38-.33.51-.12.09-.19.2-.21.38-.02.28-.21.5-.39.71-.03.04-.07.08-.1.12-.02.03-.05.05-.07.08-.1.11-.2.22-.2.41,0,.14-.09.24-.19.35-.05.05-.1.11-.13.16-.02.03-.04.06-.05.09h0c-.13.22-.27.43-.51.56-.1.05-.14.15-.18.24,0,.01,0,.02-.01.03,0,0,0,.01,0,.02-.07.15-.19.22-.35.18-.14-.03-.22.04-.31.13-.14.15-.29.29-.53.27-.03,0-.09,0-.1.03-.1.22-.25.18-.41.15-.05-.01-.1-.02-.15-.03-.27-.02-.55-.02-.82-.02-.13,0-.25,0-.38,0-.06,0-.12,0-.18,0h0c-.15,0-.29,0-.44,0-.22-.01-.29-.13-.27-.35.05-.67.29-1.28.56-1.89.11-.25.26-.49.4-.73h0c.07-.11.14-.23.2-.34.06-.11.12-.22.18-.33h0c.19-.34.38-.68.56-1.03.07-.14.16-.28.25-.42.08-.12.16-.24.23-.38-.19-.05-.35-.02-.51.02-.12.02-.24.05-.37.03-.21-.03-.36.1-.51.23-.06.06-.13.11-.2.15,0,.02.01.05.02.08h0s.01.07.02.1c0,.03.03.06.05.09.04.06.08.12.03.17-.07.08-.2.15-.31.16-.33.03-.63.15-.93.26-.19.07-.38.14-.58.19-.09.02-.14.09-.19.15-.06.07-.12.14-.23.15-.06,0-.11,0-.17,0-.11,0-.22,0-.33.03-.05.02-.09.03-.14.05-.03.01-.07.03-.11.04.04.08.11.09.18.09.06,0,.13,0,.17.07l-.08.04c-.3.16-.59.32-.93.37-.21.03-.41.11-.6.18h0c-.16.06-.32.12-.49.16-.24.28-.57.34-.89.4-.09.02-.18.03-.27.05-.14.03-.26.11-.39.18-.06.04-.12.07-.18.1-.2.1-.41.19-.62.27h0c-.28.11-.56.23-.83.38-.44.26-.93.46-1.43.6-.5.13-.96.34-1.42.56l-.09.04c-.55.25-1.13.32-1.7.14-.24-.08-.49-.16-.73-.24h0c-.31-.11-.62-.21-.93-.3-.16-.05-.31-.16-.41-.29-.08-.1-.15-.21-.21-.32-.08-.14-.17-.29-.29-.41-.11-.11-.07-.26-.02-.41.01-.05.03-.1.04-.15-.21.04-.35.17-.48.29-.05.04-.09.08-.14.12-.89.72-1.86,1.3-2.91,1.74-.07.03-.14.06-.21.09-.25.11-.49.22-.77.26-.07,0-.14.05-.19.1-.17.15-.38.22-.59.28-.08.02-.15.05-.23.08-.02,0-.05.01-.07.02-.04,0-.08.01-.1.04-.21.22-.47.27-.74.33h0c-.06.01-.13.03-.19.04-.26.07-.52.2-.72.39-.13.12-.28.2-.44.21-.33.02-.63.08-.91.27-.02.02-.06.02-.09.01h-.02c-.1,0-.19.02-.29.04-.11.02-.21.04-.3.03-.16-.01-.28.03-.41.08h0c-.07.03-.13.05-.2.07-.15.03-.29.09-.43.14-.04.01-.07.03-.11.04-.02,0-.03.01-.05.02-.1.04-.2.07-.31.11,0,0-.02,0-.03.01-.05.02-.09.04-.15.02-.05-.01-.1-.04-.11-.08-.01-.05.02-.09.07-.11.04-.01.07-.03.11-.05.06-.03.13-.05.19-.08.23-.08.43-.21.62-.36.12-.04.24-.08.36-.12.12-.04.24-.08.36-.12.08-.03.08-.08.07-.14-.02-.08-.07-.07-.14-.05-.15.06-.31.12-.47.19h0c-.07.03-.13.05-.2.08-.17.01-.33.06-.5.1-.27.07-.54.14-.83.09-.16-.03-.32.06-.48.14h0c-.07.04-.15.08-.22.11-.47.19-.94.36-1.44.41,0-.01,0-.03,0-.05h0s-.01-.05,0-.05c.06-.02.11-.06.16-.09.08-.05.16-.11.26-.12.18-.03.39-.06.48-.27,0,0,.02,0,.02,0,.01.03.02,0,.02-.02,0-.02,0-.04.02-.05-.37.17-.68.32-.98.45l-.14.06Zm10.97-15.59c-.2,0-.32.12-.47.27.18.03.28-.06.38-.14.04-.03.07-.06.11-.09h.02c.12-.04.24-.07.3-.26-.17.05-.27.11-.35.22Zm.5-.28c.15-.05.27-.13.4-.22.13-.09.27-.18.42-.23-.38,0-.58.11-.85.42-.03.01-.07.03-.03.06.03.03.05,0,.07-.04Zm-6.26.05v-.02s.01,0,.01.01c0,0,0,0-.01,0Zm.01,0s-.01,0-.01,0c0,0,0,0,.01,0Zm0-.02c.11.05.2,0,.29-.05h0s.05-.03.08-.04c.54-.24,1.05-.54,1.57-.84h0c.32-.19.65-.38.98-.55.72-.38,1.42-.77,2.12-1.17h0c.23-.13.47-.26.7-.39.14-.08.28-.16.42-.23h0c.39-.21.78-.42,1.14-.67.46-.32.9-.69,1.32-1.06h0s0,0,0,0c.07-.06.15-.12.22-.19.04-.04.09-.07.14-.1.11-.07.23-.14.26-.28-.05-.09-.12-.09-.19-.09-.2.01-.39,0-.59-.02-.23-.02-.46-.03-.7,0-.7.08-1.4.16-2.1.28-.07.01-.13.04-.2.07-.09.04-.18.09-.27.06-.15-.04-.26,0-.37.04-.02,0-.05.02-.07.02-.04.01-.08.03-.12.04-.1.03-.19.07-.29.07-.68.03-1.28.3-1.88.56h0c-.18.08-.35.16-.53.23-.09.04-.22.16-.13.26.18.2.11.38.03.56,0,.02-.02.05-.03.07-.04.1-.07.2-.1.31h0c-.07.24-.14.47-.28.66-.56.76-1.01,1.59-1.43,2.44Zm-7.02,12.52h0c.34-.13.67-.26,1.02-.37.53-.17,1.06-.33,1.59-.49.53-.16,1.06-.32,1.59-.49.65-.21,1.3-.42,1.94-.63.51-.17,1.02-.33,1.53-.49,1.41-.45,2.78-.99,4.09-1.66.18-.09.35-.19.53-.28.22-.12.43-.24.65-.34.3-.15.57-.36.7-.7.04-.1.08-.19.18-.27.09-.07.18-.19.13-.31h0c-.08-.19-.17-.38-.37-.48-.19-.09-.36-.21-.52-.34-.05-.04-.09-.07-.14-.1-.12-.09-.24-.14-.39-.18-.36-.09-.71-.21-1.06-.34-.06-.02-.12-.05-.18-.08-.2-.09-.4-.18-.64-.08-.03.01-.08,0-.1-.01-.21-.19-.48-.21-.73-.22-.07,0-.13,0-.2-.01-.25-.03-.5-.07-.75-.12h0c-.27-.05-.54-.1-.81-.12-.04,0-.08-.01-.12-.02-.11-.02-.22-.04-.33,0-.16-.14-.36-.15-.55-.16-.09,0-.18,0-.26-.03-.2-.04-.41-.05-.61-.06-.19-.01-.38-.02-.57-.06-.24-.05-.33,0-.41.24-.07.21-.18.41-.29.6v.02s-.07.1-.09.14c-.09.16-.19.33-.25.5-.19.59-.42,1.15-.75,1.68v.02c-.18.27-.35.54-.67.65-.16.06-.27.19-.37.32h0s-.02.04-.03.06c-.02.04-.04.08-.08.08-.21.03-.27.19-.33.34-.02.06-.04.11-.07.16-.04.07-.06.16-.09.24,0,.03-.02.07-.03.1-.07.2-.15.39-.42.35-.08-.01-.13.06-.11.11.07.19-.03.27-.17.38-.07.05-.11.12-.15.2-.06.11-.12.23-.28.26.05.12-.01.21-.07.3-.04.05-.07.11-.09.17-.03.14-.09.28-.14.42h0c-.04.09-.07.17-.1.26-.08.24-.29.33-.5.38-.06.02-.11.03-.14.03-.09.02-.11.02-.15.09-.07.11-.16.2-.26.29h0s-.06.05-.09.08c-.02.02-.05.03-.08.05-.08.04-.17.08-.2.21.13-.01.23-.07.32-.13.16-.06.32-.12.48-.18Zm43.37-13.39c-.15.02-.21.11-.26.19h0c-.19.29-.4.56-.62.83h0c-.26.33-.53.67-.75,1.03-.08.13-.18.25-.28.36h0c-.16.19-.32.38-.41.63-.01.04-.05.07-.09.1h0c-.34.27-.56.62-.79.98-.14.22-.28.44-.45.65.32-.08.64-.15.95-.22.79-.17,1.55-.34,2.29-.62h.04c.25-.11.27-.11.25-.39-.02-.38,0-.75.04-1.12.03-.43.07-.86.02-1.29,0-.05,0-.08.02-.13h0c.07-.22.06-.44.05-.66,0-.11-.01-.23,0-.35Zm-43.07,12.32c.09-.03.12-.1.12-.19,0-.04-.02-.07-.06-.07-.1.02-.11.11-.13.19h0s.03.07.07.07Zm44.6-4.82c-.08.14-.09.29,0,.44v-.44Zm-37.79,8.06s0-.01-.01-.02c0-.02-.01-.03-.02-.03-.04-.01-.07,0-.07.05,0,.02.01.05.03.05.04.01.07,0,.08-.05Zm-.28-.42s-.06.04-.05.07c0,.01.04.03.05.03.04,0,.06-.03.05-.07,0,0-.02-.02-.03-.02,0,0-.02,0-.02-.01Zm.22-.07s-.06.04-.05.07c0,.01.04.03.05.03.04,0,.06-.03.05-.07,0-.01-.02-.02-.04-.02,0,0,0,0,0,0,0,0,0,0,0,0Zm26.98-2.67s0,0,.01,0c.02,0,.03,0,.04-.02.02-.03,0-.07-.03-.08-.01,0-.05,0-.05.02-.02.03-.01.06.03.08,0,0,0,0,0,0Zm.74-1.64s-.05.04-.03.08c0,.01.04.03.06.03.04-.01.05-.04.03-.08,0-.01-.02-.02-.04-.02,0,0-.01,0-.02,0Zm-4.23-1.39s0-.01,0-.02c0-.02,0-.04-.02-.04-.03-.02-.07,0-.08.03,0,.02,0,.05.03.06.03.02.06,0,.08-.03Zm4.51,1.06l.07-.08s0,0-.01,0c-.01-.01-.03-.02-.04-.02-.04,0-.07.03-.06.07,0,0,0,.01.02.02,0,0,.01,0,.02.02Zm-64.88,4.44c-.12.15-.19.32-.26.5h0c-.07.16-.14.33-.24.47-.1-.03-.17-.11-.24-.18-.06-.06-.11-.12-.19-.16-.07.08-.09.18-.11.28h0s0,.05-.01.07c-.05.24-.13.31-.38.29-.24-.02-.48-.05-.72-.08h0c-.11-.01-.21-.03-.32-.04-.31-.04-.53-.2-.66-.49-.09-.19-.11-.19-.34-.14h-.01c.01-.24.02-.49.02-.73h0c0-.18,0-.37.02-.55.02-.4.09-.79.17-1.18h0c.06-.29.12-.58.15-.88.04-.37.16-.73.27-1.08h0c.04-.13.09-.27.13-.4.36-1.21.76-2.4,1.18-3.59.1-.27.19-.54.28-.82.22-.63.43-1.27.68-1.89.08-.19.15-.38.23-.57h0c.3-.74.6-1.48.88-2.22.03-.08.06-.15.1-.23h0c.08-.17.16-.34.17-.53-.11-.02-.16.05-.21.11-.01.01-.02.03-.03.04l-.13.13c-.38.4-.76.8-1.1,1.24l-.11.14h0c-.42.54-.85,1.08-1.25,1.64-.06.09-.12.17-.19.26h0c-.27.38-.55.76-.79,1.17-.22.36-.46.71-.77,1-.16.15-.28.31-.37.52-.1.25-.3.44-.5.63l-.04.04c-.86.82-1.56,1.78-2.26,2.73-.12.17-.26.31-.44.43-.31.21-.62.42-.93.63-.06.05-.13.05-.2.06-.01,0-.02,0-.03,0,0,0,0,0,0,0-.47.05-.94.12-1.39.28-.32.11-.63.09-.96.01-.36-.09-.59-.32-.67-.65-.04-.17-.11-.32-.18-.47-.08-.18-.16-.36-.19-.56,0-.02,0-.04-.01-.06,0-.05-.02-.1-.02-.15,0-.65,0-1.29,0-1.93,0-.2.03-.41.06-.61h0c.02-.15.04-.3.05-.45.01-.18.05-.36.08-.54h0c.05-.25.09-.51.08-.77,0-.15.02-.32.06-.49h0c.01-.06.02-.12.03-.17.06-.4.1-.8.14-1.2.02-.2.04-.39.06-.59.01-.13.05-.26.08-.38h0c.02-.07.04-.14.05-.21.1-.46.07-.92.04-1.39-.01-.16-.02-.32-.03-.48-.04.05-.07.09-.11.14h0c-.07.09-.14.18-.2.27-.44.62-.81,1.28-1.18,1.94l-.02.04c-.37.66-.71,1.33-1.05,2-.1.2-.21.4-.31.6-.5.97-.97,1.97-1.32,3.01-.09.27-.22.51-.36.76-.04.07-.08.14-.12.22-.15.28-.21.58-.22.9-.02.43-.1.85-.22,1.27-.05.18-.12.35-.19.53-.1.26-.21.52-.24.8-.02.2-.16.4-.31.57-.27.32-.44.67-.52,1.09-.07.38-.16.76-.49,1.02h0c-.11.09-.22.19-.39.14,0-.14-.01-.27-.03-.4-.13-.02-.19.04-.21.15-.03.14-.13.26-.27.26-.24,0-.47.04-.71.08h0c-.29.05-.59.1-.89.07-.07,0-.14-.01-.21-.04-.41-.13-.43-.16-.44-.58,0-.49,0-.98.15-1.46.02-.06.02-.14.01-.21,0-.01,0-.03,0-.04-.02-.51.1-.98.32-1.44.04-.08.03-.16.03-.23v-.02c-.02-.37.04-.71.19-1.06.13-.28.18-.59.24-.91.08-.49.24-.96.42-1.42.31-.82.59-1.65.86-2.48.23-.7.46-1.4.72-2.09.1-.28.21-.57.31-.85.29-.81.59-1.62.89-2.42.42-1.13.87-2.24,1.37-3.34.48-1.07.97-2.14,1.57-3.15.17-.29.35-.58.57-.84.07-.08.17-.14.26-.2.09-.06.18-.11.25-.19.21-.23.47-.34.74-.43.38-.12.53-.07.77.26.12.16.32.17.49.18.3,0,.6.02.9.04.44.03.88.06,1.32.03.34-.02.63.09.91.28.23.16.51.22.78.27h0c.3.07.53.21.74.42.33.31.59.67.85,1.04.09.14.14.29.15.43.05.44.02.88-.12,1.31-.04.14-.07.28-.09.43-.03.19-.07.37-.14.54-.1.26-.16.53-.21.79-.04.18-.07.35-.12.53-.03.09-.06.18-.1.27-.02.06-.04.11-.06.17-.17.52-.25,1.05-.33,1.58-.02.1-.03.21-.05.31-.17,1.04-.4,2.07-.67,3.08-.03.13-.03.25-.02.37h0c0,.05,0,.1,0,.16.27-.25.5-.53.69-.83.38-.59.77-1.17,1.2-1.72.12-.15.21-.32.3-.48.11-.19.21-.38.35-.55.04-.04.07-.09.11-.13h0c.13-.16.26-.32.41-.47.17-.18.32-.36.43-.58.18-.35.43-.63.7-.91.04-.05.09-.09.13-.14h0c.24-.25.48-.5.68-.79v-.02s.05-.05.07-.07c.32-.27.58-.59.84-.91.15-.19.31-.38.47-.55.04-.04.08-.08.11-.12h0c.16-.17.32-.33.4-.56.02-.07.09-.12.15-.18.02-.02.05-.04.07-.06.23-.23.42-.49.6-.75.12-.17.28-.32.43-.47h0s.09-.09.13-.13c.08-.08.15-.15.23-.22h0c.23-.21.45-.42.62-.68.11-.16.26-.28.41-.4l.06-.04c.34-.27.67-.55.98-.86.16-.16.35-.21.55-.26.04-.01.09-.02.13-.03h0c.33-.08.65-.15.9-.43.09-.1.26-.16.39-.16.07,0,.14,0,.21,0h0c.39-.02.78-.04,1.16.07h.02s.09.03.11.06c.22.24.49.4.76.56h0c.14.09.28.17.42.27.41.29.76.63,1.04,1.05.26.38.24.82.16,1.23-.12.6-.3,1.19-.66,1.7-.01.02-.01.04-.02.07h0s0,.03,0,.04c.17.04.32,0,.47-.05.07-.02.13-.04.2-.05.39-.07.77-.17,1.14-.28h0c.21-.06.42-.12.63-.18.61-.15,1.22-.25,1.84-.33.25-.03.5-.09.74-.15.35-.08.7-.13,1.05-.17.09-.01.18-.02.27-.03.69-.1,1.39-.11,2.09-.13.26,0,.51-.01.77-.02.14,0,.28-.01.41-.02.31-.02.62-.04.92-.02,1.15.05,2.28.18,3.35.62.54.22.95.61,1.31,1.06.1.12.13.25.12.4,0,.08.01.16.03.24.03.18.06.35-.08.52,0,.01,0,.04.02.08,0,.02.02.04.02.06.08.25.08.51.08.77h0c0,.07,0,.14,0,.2,0,.18-.04.35-.15.47-.14.15-.26.32-.38.49-.04.06-.08.12-.12.17v.02c-.07.07-.11.13-.23.09-.09-.03-.18,0-.27.04-.05.02-.1.04-.14.05-.05.01-.08.04-.09.1-.11.39-.43.63-.73.84h-.02c-.6.45-1.28.75-2,.95-.16.05-.31.13-.47.22-.13.08-.26.15-.4.2-.18.07-.34.17-.5.27-.2.13-.4.26-.64.31-.24.05-.46.15-.66.3h0c-.06.04-.1.07-.12.16-.04.22-.16.43-.38.49-.14.04-.15.11-.13.2.04.17.06.34.07.52h0c.01.2.03.39.09.59.08.25.11.51.14.77.02.12.03.24.05.36.01.1.03.19.05.29h0c.05.31.1.61.14.92.04.26.07.53.1.79h0c.02.13.03.26.05.39.02.15.04.29.06.44h0c.05.32.09.64.12.96.02.29.05.57.15.84.04.12-.02.23-.1.29-.24.18-.3.42-.3.7,0,.18-.03.31-.23.4-.17.08-.17.29-.18.47h0c-.01.35-.12.45-.47.4-.17-.03-.34-.06-.51-.1-.12-.03-.25-.06-.37-.08-.15-.03-.25-.11-.34-.24-.07-.1-.13-.21-.19-.32h0c-.09-.17-.18-.34-.31-.48-.06-.07-.07-.16-.07-.24,0-.06,0-.12-.03-.17-.21-.53-.29-1.09-.36-1.65h0s0-.04,0-.04c-.12-.89-.32-1.76-.52-2.64l-.06-.26-.02-.09c-.06-.24-.11-.48-.1-.73,0-.14-.04-.26-.08-.39-.06-.18-.13-.36-.19-.55-.06-.16-.11-.31-.17-.47-.05-.14-.12-.19-.27-.12-.17.08-.35.08-.53.09-.12,0-.24,0-.36.03-.12.03-.19.05-.13.18.06.12-.01.18-.1.23-.3.18-.59.36-.79.66-.02.03-.04.06-.06.08-.04.06-.09.12-.11.19-.11.28-.24.55-.37.82h0c-.12.24-.24.48-.34.73-.09.23-.2.45-.31.67-.14.28-.28.55-.38.84-.03.08-.06.15-.09.22h0c-.04.08-.07.16-.1.24-.03.1-.07.15-.17.19-.16.06-.17.22-.17.37,0,.04,0,.07,0,.11-.03.22-.08.42-.2.61,0,.01-.01.03-.02.05,0,.02-.01.05-.03.05-.34.11-.38.38-.43.65h0c0,.06-.02.11-.03.17v.02s-.02.09-.07.09c-.27,0-.33.19-.39.37,0,.03-.02.06-.03.08-.03.1-.1.17-.17.25-.1.11-.2.22-.23.42-.09-.2-.2-.22-.34-.2-.06,0-.12,0-.18,0h0c-.16,0-.32,0-.45.15-.05.05-.13.08-.2.05-.25-.09-.51-.08-.76-.06h0c-.07,0-.14,0-.21,0-.28,0-.4-.12-.45-.47-.07-.51.1-.97.26-1.44.02-.07.05-.13.07-.2.35-1.03.67-2.06.99-3.1.05-.17.1-.34.16-.5.1-.33.23-.64.36-.96h0c.05-.12.1-.24.14-.36.01-.03.03-.06.04-.09h0c.06-.11.11-.22-.01-.37-.08-.1.05-.35.2-.4.26-.1.38-.29.48-.54.46-1.06,1.01-2.08,1.56-3.1l.11-.21c.25-.47.5-.94.7-1.44.09-.21.2-.42.31-.63h0c.05-.09.1-.19.15-.29-.18-.09-.3-.01-.42.07h-.02s-.07.06-.11.09c-.12.08-.24.17-.38.23-.29.12-.49.11-.68-.12-.09-.1-.19-.18-.3-.25-.11-.07-.21-.15-.3-.25-.09-.11-.26-.13-.4-.14-.15-.02-.24.04-.31.19-.17.41-.37.79-.64,1.16-.16.22-.27.48-.35.75-.08.27-.19.52-.31.77-.24.49-.47.98-.77,1.44h0c-.04.07-.07.12-.09.19-.13.46-.34.88-.56,1.3-.28.53-.48,1.09-.67,1.66-.13.39-.29.77-.46,1.14-.11.23-.16.48-.21.73v.03s-.01.05-.02.07c-.02.11-.04.24-.13.3-.15.09-.21.24-.28.38-.04.1-.09.19-.16.27-.09.11-.17.29-.11.5.05.19-.02.38-.1.57-.03.06-.05.13-.07.19-.07.2-.12.38-.08.59.04.23-.02.45-.08.67-.03.11-.05.21-.07.32,0,.02-.01.05-.03.06-.25.17-.26.42-.28.67,0,.07-.01.13-.02.2-.03.2-.06.4-.09.6-.04.26-.08.52-.12.79-.01.1-.01.2,0,.3,0,.07,0,.14,0,.21,0,.13-.02.27-.2.12-.03-.03-.07-.03-.09,0-.11.19-.16.1-.2.01-.02-.04-.03-.07-.05-.08-.02-.01-.02-.06-.02-.11,0-.02,0-.04,0-.06,0-.06,0-.12-.09-.13-.07,0-.12.02-.15.08-.02.04-.04.08-.06.12h0s-.03.05-.04.08c-.03.05-.07.07-.12.06-.07,0-.08-.06-.08-.11,0,0,0-.02,0-.03,0-.03,0-.05.02-.07.02-.06.04-.12-.05-.18Zm12.57-12c.3-.08.55-.2.79-.32.12-.06.24-.12.37-.17.37-.15.74-.3,1.11-.45h0c.83-.33,1.65-.67,2.46-1.04.14-.06.28-.12.42-.17s.28-.11.42-.17c.69-.32,1.33-.74,1.96-1.16.26-.18.5-.37.74-.58.24-.2.19-.42-.1-.51-.02,0-.04,0-.06-.01-.01,0-.03,0-.04,0-.35-.07-.71-.12-1.07-.15-.18-.01-.35.01-.53.04-.17.02-.35.05-.52.04-.21-.01-.42.02-.63.04-.14.02-.27.04-.41.04-.43.02-.87.1-1.29.18l-.13.02c-.21.04-.42.08-.63.13h0c-.28.06-.57.13-.85.17-.15.02-.24.1-.21.31.05.31,0,.61-.2.89-.03.04-.05.08-.08.12-.14.2-.28.41-.35.63-.12.4-.36.72-.61,1.03h0c-.04.05-.08.1-.12.15-.2.27-.31.59-.43.95Zm-11.8,12c.07,0,.11-.03.12-.08.01-.3.01-.61.01-.91,0-.07-.05-.11-.12-.11-.09,0-.12.06-.12.15,0,.06,0,.12,0,.19,0,.26,0,.52.11.76Zm.73-4.1c.05-.02.08-.06.07-.11-.01-.04-.04-.11-.07-.11-.07,0-.07.06-.06.1,0,0,0,.02,0,.02,0,.04,0,.09.06.09Zm-.7-10.11l.03.03h0s.01-.04.02-.05c0,0,0,0,0-.01,0,0,0,0-.01-.01-.01.02-.02.03-.03.05Zm95.52-3.61c-.48.11-.94.21-1.39.12-.04,0-.08,0-.11,0-.23,0-.42-.01-.56.13-.04.04-.08.07-.11.11-.21.21-.42.42-.61.65-.13.16-.15.38-.15.58,0,.18.05.36.25.44.1.03.18.1.2.2.02.11.09.17.17.23,0,0,.01.01.02.02.07.06.12.14.17.21,0,.01.02.03.03.04.08.11.14.22.21.34.21.36.42.73.92.81.02,0,.03.02.04.03,0,0,.01,0,.01.01.08.06.17.07.25.09.04,0,.08.01.12.02.15.04.29-.02.42-.09.14-.07.28-.14.45-.08,0,0,.03-.02.05-.05.01-.02.03-.04.04-.05.33-.33.7-.53,1.19-.5.04,0,.09.01.13.02.15.02.31.05.46-.07.06-.04.15.01.12.11-.02.08-.06.15-.1.22h0c-.23.43-.4.88-.58,1.32h0c-.19.49-.39.97-.59,1.44-.22.53-.45,1.06-.66,1.6-.12.31-.24.62-.36.93-.29.73-.57,1.47-.83,2.21-.16.46-.3.92-.43,1.38-.11.37-.22.73-.34,1.1-.24.73-.44,1.46-.65,2.2-.07.26-.13.51-.19.77-.05.19-.09.39-.14.58-.04.14-.03.27-.03.41,0,.06,0,.12,0,.17,0,.14.08.18.2.21.28.06.43-.11.59-.28h0c.32-.36.75-.51,1.21-.4.38.09.84-.07.99-.38.03-.06.06-.12.1-.18.06-.1.11-.2.15-.3.05-.13.1-.26.15-.39.1-.26.19-.53.29-.79h0c.04-.12.1-.26.21-.29.2-.05.25-.19.29-.34,0-.02.01-.04.02-.05.01-.04.03-.09.04-.13.04-.12.08-.23.12-.35.04-.1.08-.19.12-.29.17-.42.35-.83.54-1.24.15-.31.26-.63.37-.95.06-.18.12-.36.19-.53.18-.47.37-.94.57-1.41.19-.47.38-.94.56-1.41.18-.47.4-.92.61-1.37.11-.24.23-.48.33-.72.03-.07.07-.12.14-.16.08-.04.14-.1.18-.18.08-.16.17-.32.26-.48.2-.35.4-.7.45-1.13,0-.03.02-.07.05-.09.14-.11.24-.26.34-.4.06-.09.13-.18.2-.27.15-.18.23-.36.24-.58.02-.46.11-.54.58-.6.18-.02.36-.06.51-.16.31-.2.66-.25,1-.29.06,0,.11-.01.16-.02.19-.03.39-.06.58-.1.29-.05.58-.1.87-.13.16-.01.28-.13.38-.26.1-.11.15-.23.1-.39-.02-.07.01-.24.14-.27.1-.02.14-.09.18-.17.04-.07.08-.15.18-.16.05,0,.06-.13.03-.16-.17-.11-.15-.19,0-.3.04-.03-.03-.09-.08-.12-.15-.1-.16-.27-.05-.39.2-.22.19-.22-.05-.39h0c-.13-.09-.26-.12-.41-.12-.1,0-.2,0-.31,0-.41,0-.82,0-1.23,0-.35-.01-.69.02-1.04.06-.11.01-.22.02-.33.03-.09,0-.19.02-.28.03-.46.04-.91.08-1.36.16-.39.07-.78.13-1.18.16-.17.01-.35.05-.52.09-.25.06-.5.12-.76.09-.03,0-.06,0-.1.01-.02,0-.03,0-.05,0-.13.02-.26.04-.39.07-.3.05-.59.1-.89.11-.45,0-.88.1-1.31.19-.24.05-.48.1-.72.14-.21.03-.41.08-.61.12Z" fill-rule="evenodd"/></svg>