<?xml version="1.0" encoding="UTF-8"?><svg id="Layer_1" xmlns="http://www.w3.org/2000/svg" viewBox="0 0 196.36 30.09"><path d="m10.93,9.26v10.64c1.44-.78,2.44-2.13,2.93-3.65l.12.06c-.32,3.8-2.91,7.59-6.93,7.59S0,20.88,0,16.05c0-3.62,2.36-5.9,5.38-7.94-.44-.12-.9-.17-1.35-.17-2.07,0-3.28,1.41-3.28,2.85h-.17c-.03-.2-.03-.4-.03-.6,0-2.56,1.35-5.67,4.63-5.67,2.1,0,3.71,1.93,6.16,1.93.98,0,2.19-.46,2.67-1.52h.09c-.03,1.87-.6,3.8-3.16,4.34Zm1.55,10.9c-1.44,1.52-2.99,2.82-5,2.82-3.74,0-6.62-2.93-6.62-7.19,0-2.5,1.04-3.85,2.19-5.44h-.12c-.72.72-2.62,2.53-2.62,5.61,0,4.72,2.96,7.62,6.85,7.62,2.7,0,4.54-1.87,5.38-3.39l-.06-.03Zm1.15-13.95c-.49.92-1.52,2.1-3.62,2.1s-4.03-1.44-5.72-1.44c-1.55,0-2.62,1.04-3.02,1.81l.03.06c.55-.55,1.38-1.09,2.73-1.09,2.24,0,3.68,1.38,5.95,1.38,2.42,0,3.51-1.58,3.71-2.79l-.06-.03Zm-8,1.98c-1.47,1.52-2.82,3.19-2.82,6.44,0,1.78.6,3.62,1.96,4.77l.83-.43v-7.71l-.78.4-.14-.29,4.03-2.19c-1.09-.23-2.07-.72-3.08-1.01Zm4.98,1.12c-.2.03-.4.03-.63.03-.4,0-.78-.03-1.15-.12v8.4l-3.77,2.04c.78.58,1.73.92,2.93.92.98,0,1.84-.2,2.62-.55v-10.73Zm-4.14,1.47l-.55.32v7.71l.55-.29v-7.74Zm16.54,1.09v9.95c0,2.76-2.44,4.63-5.18,5.18l-.06-.12c1.35-.66,2.13-2.01,2.13-3.45v-10.3l-1.55-1.41-.6.66v8.03l.86.78v.06l-2.33,2.53-2.67-2.44v-.12l1.04-1.09V7.42l3.05-3.25.06.03v7.71l2.5-2.7,2.62,2.36.49-.52.23.2-.58.63Zm-8.05,9.41v-.06l.6-.6V6.93l-.6.63v12.77l-.92.92v.06l2.24,2.01.4-.46-1.73-1.58Zm5.87-8.6l-1.87-1.61-.4.43,1.67,1.5v10.36c0,.69-.14,1.41-.4,1.81l.03.03c.72-.52.98-1.29.98-2.3v-10.21h0Zm6.76,4.98v1.47l2.79,2.19,1.61-1.73.23.23-3.74,4-3.8-3.05-.58.6-.23-.23.66-.69v-7.28l5.44-3.97,2.85,4.6-5.24,3.85Zm-2.13,2.53v-7.31l-.6.43v7.16l3.57,2.91.46-.49-3.42-2.7Zm2.19-8.86l-.06.03v5.9l2.56-1.87-2.5-4.06Zm.75-.58l-.52.37,2.53,4.06.52-.37-2.53-4.06Zm23.18,13.03l-4-3.45-3.05,3.45-4.14-3.57v-5.64h-.81c-.72,0-1.09.46-1.27,1.01h-.09c-.09-.36-.14-.72-.14-1.09,0-.75.2-2.7,2.3-2.7v-4.95c0-.95-1.12-1.32-1.12-2.59,0-1.64,1.55-3.25,4.4-4.26l.12.09c-1.04.6-1.58,1.18-1.58,2.42,0,1.9,1.84,1.41,1.84,4.4v1.15l3.37-3.54,3.54,3.48,3.34-3.48,3.22,3.16v10.64l-5.93,5.47Zm-10.27-4.03v-6.07h-1.61c-.83,0-1.21.55-1.27,1.04l.03.03c.29-.32.58-.49,1.24-.49h1.01v5.81l3.8,3.28.43-.52-3.62-3.08Zm0-13.2c0-1.18-1.04-1.58-1.04-2.33,0-1.04.4-1.9,1.04-2.7l-.06-.03c-.86.66-1.67,1.73-1.67,2.76s1.12,1.52,1.12,2.45v5.09h.6v-5.24Zm6.07,2.88l-2.19-2.13-1.15,1.18v10.18l2.62,2.21.72-.81v-10.64Zm.92,10.27v-10.67l-2.44-2.42-.46.46,2.3,2.21v10.73l3.88,3.37.46-.43-3.74-3.25Zm5.58-10.64l-1.81-1.73-1.04,1.06v10.24l2.82,2.47.03-.03v-12.02Zm.92-.4l-2.1-2.04-.43.46,1.93,1.84v12.02l.6-.58v-11.71Zm12.22,15.13l-2.73-2.47-2.44,2.47-2.99-2.65-.4.43-.23-.23.52-.55v-7.71l5.41-3.91,3.11,2.42.55-.58.23.23-.63.66v7.97l1.52,1.41.49-.52.23.2-2.62,2.82Zm-7.36-3.19v-7.77l-.6.43v7.62l2.76,2.47.46-.46-2.62-2.3Zm4.63-7.57l-2.36-1.84-.09.06v8.37l1.96,1.7.49-.49v-7.8Zm.92,7.82v-8.26l-2.44-1.99-.58.4,2.42,1.9v8.23l2.42,2.19.43-.46-2.24-2.01Zm10.18-6.44h2.96v6.16l-4.57,3.22c-.6-.69-1.47-1.18-2.53-1.18-.86,0-1.55.29-2.47,1.06l-.14-.06,3.91-5.7h-2.42v-5.35l4.8-3.34c.58.46,1.01.72,1.75.72.58,0,1.41-.12,2.04-.63l.12.06-3.45,5.03Zm-3.22,7.36c-.83,0-1.5.29-2.07.69v.06c.46-.2.92-.26,1.35-.26.66,0,1.7.32,2.39,1.12l.66-.49c-.55-.63-1.21-1.12-2.33-1.12Zm3.08-4.83h-1.61l-3.37,4.86.03.06c.83-.6,1.64-1.01,2.62-1.01.86,0,1.75.4,2.3,1.09l.03-.03v-4.98Zm-4.2,0v-4.63l-.6.43v4.83h2.33l.46-.63h-2.19Zm6.01-5.64c-.6.43-.95.66-1.96.66-.58,0-1.27-.26-1.81-.83l-.06.03v4.2h1.09l2.76-4.03-.03-.03Zm-1.38-.26c-.52,0-1.18-.26-1.61-.83l-.72.49c.55.66,1.06.95,1.87.95.52,0,1.27-.14,2.04-.81l.03-.09c-.49.2-1.09.29-1.61.29Zm.49,4.95h-1.87l-.43.6h1.7v5.58l.6-.43v-5.75Zm12.11-4.11v9.95c0,2.76-2.44,4.63-5.18,5.18l-.06-.12c1.35-.66,2.13-2.01,2.13-3.45v-10.3l-1.55-1.41-.6.66v8.03l.86.78v.06l-2.33,2.53-2.67-2.44v-.12l1.04-1.09V7.42l3.05-3.25.06.03v7.71l2.5-2.7,2.62,2.36.49-.52.23.2-.58.63Zm-8.05,9.41v-.06l.6-.6V6.93l-.6.63v12.77l-.92.92v.06l2.24,2.01.4-.46-1.73-1.58Zm5.87-8.6l-1.87-1.61-.4.43,1.67,1.5v10.36c0,.69-.14,1.41-.4,1.81l.03.03c.72-.52.98-1.29.98-2.3v-10.21Zm7.42,11.1l-2.47-2.27-.58.6-.23-.23.66-.72v-8.31l-1.21-1.15-.46.52-.23-.23,2.59-2.82,2.3,2.07.58-.63.26.2-.72.78v8.4l1.38,1.29.63-.66.23.23-2.73,2.93Zm-1.7-2.82v-8.57l-1.5-1.38-.4.46,1.29,1.24v8.54l2.3,2.07.43-.46-2.13-1.9Zm.86-12.02l-2.36-2.16,2.16-2.3,2.36,2.16-2.16,2.3Zm-1.47-2.62l-.43.43,1.87,1.75.43-.49-1.87-1.7Zm14.46,17.46l-2.5-2.27v-8.4l-1.53-1.38-.81.86v7.77l.89.83v.12l-2.36,2.47-2.68-2.44v-.09l1.04-1.09v-7.25l-1.35-1.24-.55.6-.23-.23,2.62-2.85,2.62,2.33v.58l2.73-2.91,2.56,2.3.58-.6.26.23-.69.72v8.23l1.3,1.21.63-.69.23.23-2.76,2.96Zm-7.59-2.5v-.06c0,.06.58-.58.58-.58v-8.17l-1.64-1.5-.4.43,1.44,1.32v7.59l-.89.92v.06l2.21,2.01.46-.49-1.75-1.55Zm6.01-.23v-8.43l-1.78-1.61-.46.49,1.64,1.47v8.37l2.16,2.01.46-.49-2.01-1.81Zm9.69,7.91c-.95-1.04-1.61-1.47-2.5-1.47-.95,0-2.04.37-3.16.98l-.09-.09,3.97-4.6-2.82-2.24-.55.58-.23-.2.63-.69v-8.14l5.47-3.91,3.05,2.42.52-.58.23.23-.6.66v9.84c0,1.5.83,1.44.83,2.56,0,1.29-1.87,2.5-4.75,4.66Zm-3.83-7.97v-8.14l-.6.43v7.97l2.85,2.3.43-.52-2.68-2.04Zm2.01,5.75c-.95,0-1.81.29-2.62.83v.06c.52-.2,1.09-.46,2.07-.46.89,0,1.64.49,2.39,1.35l.57-.46c-.72-.83-1.58-1.32-2.42-1.32Zm3.51-2.76c-.72-.46-.89-.95-.89-2.19v-.52l-4.78,5.52.03.03c.92-.55,1.75-.95,3.11-.95,1.15,0,1.93.46,2.82,1.21.55-.46.92-.92.92-1.64,0-.58-.49-1.01-1.21-1.47Zm-.89-10.96l-2.39-1.87-.06.06v8.83l1.84,1.44.6-.69v-7.77Zm1.75,10.56c-.75-.58-.83-1.06-.83-2.3v-8.74l-2.42-1.96-.55.37,2.36,1.87v8.86c0,1.24.06,1.58.83,2.1.69.46,1.24.95,1.24,1.61,0,.17-.03.46-.03.46l.03.03c.14-.14.32-.37.32-.75,0-.63-.32-1.06-.95-1.55Zm6.9.2l-2.65-2.07-.55.6-.23-.23.63-.69v-10.07h-1.67l-.06-.06,1.01-1.5h.72v-1.93l3.05-3.25.06.06v5.12h2.3l.06.06-1.01,1.5h-1.35v8.72l1.58,1.21.6-.66.23.23-2.73,2.96Zm-1.87-16.42l-.6.66v1.75h.6v-2.42Zm0,13.75v-9.78h-.6v10.13l2.44,1.9.43-.46-2.27-1.78Zm14.01-8.95v8.05l-4.86,3.6-3.65-2.76-.43.49-.23-.23.52-.58v-7.88l5.09-3.65,3.39,2.65.55-.58.23.23-.6.66Zm-7.74,8.28v-7.85l-.6.43v7.74l3.45,2.65.55-.4-3.39-2.56Zm4.63-7.34l-2.42-1.9-.03.03v8.57l2.44,1.84v-8.54Zm.92-.52l-2.68-2.07-.55.4,2.62,2.01v8.95l.6-.46v-8.83Zm13.17,11.19l-2.5-2.27v-8.4l-1.53-1.38-.8.86v7.77l.89.83v.12l-2.36,2.47-2.67-2.44v-.09l1.03-1.09v-7.25l-1.35-1.24-.55.6-.23-.23,2.62-2.85,2.62,2.33v.58l2.73-2.91,2.56,2.3.57-.6.26.23-.69.72v8.23l1.3,1.21.63-.69.23.23-2.76,2.96Zm-7.6-2.5v-.06c0,.06.58-.58.58-.58v-8.17l-1.64-1.5-.4.43,1.44,1.32v7.59l-.89.92v.06l2.21,2.01.46-.49-1.76-1.55Zm6.01-.23v-8.43l-1.78-1.61-.46.49,1.64,1.47v8.37l2.16,2.01.46-.49-2.01-1.81Zm19.35,2.73c-.8-.86-1.09-1.15-2.04-1.41v5.64l-.06.03-1.15-1.04-3.34,3.08-.06-.03v-7.74c-1.01.23-2.07.75-3.11,1.78l-.06-.03c.2-2.21,1.29-3.85,3.16-4.49v-5.61h-.6c-.83,0-1.29.43-1.7,1.21h-.09c-.09-.26-.14-.66-.14-1.32,0-1.21.89-2.47,2.36-2.47h.17v-3.11l-1.18-1.06-.58.58-.2-.2,2.9-3.08,2.7,2.47v2.62l.63-.69v-3.31h.32v3.02l3.83-4.11,3.25,2.96v12.51l-5.03,3.8Zm-6.64-2.53c-1.18.23-2.01.95-2.56,1.9l.03.06c.81-.69,1.55-1.01,2.53-1.24v-.72Zm.92-8.25h-1.58c-1.09,0-1.52.69-1.55,1.5l.03.03c.34-.58.69-.78,1.38-.86h1.12v15.68l.6-.58v-15.76Zm0-5.18l-1.44-1.32-.46.49,1.29,1.15v3.25h.6v-3.57Zm3.37,1.64l-.63.66v16.65l.63.58V9.46Zm3.77-.66l-1.7-1.55-1.75,1.9v10.12c1.5.14,2.53.58,3.42,1.55l.03-.03v-12Zm-3.45,12.45v.75c.98.23,1.38.52,2.07,1.32l.66-.52c-.69-.86-1.38-1.38-2.73-1.55Zm4.37-12.91l-1.96-1.81-.46.49,1.81,1.67v13.38l.6-.46v-13.26Zm12.74,3.83v8.05l-4.86,3.6-3.65-2.76-.43.49-.23-.23.52-.58v-7.88l5.09-3.65,3.39,2.65.55-.58.23.23-.6.66Zm-7.74,8.28v-7.85l-.6.43v7.74l3.45,2.65.55-.4-3.39-2.56Zm4.63-7.34l-2.42-1.9-.03.03v8.57l2.45,1.84v-8.54Zm.92-.52l-2.68-2.07-.55.4,2.62,2.01v8.95l.6-.46v-8.83Zm8.86,1.81h2.96v6.16l-4.57,3.22c-.6-.69-1.47-1.18-2.53-1.18-.86,0-1.55.29-2.47,1.06l-.14-.06,3.91-5.7h-2.42v-5.35l4.8-3.34c.58.46,1.01.72,1.75.72.58,0,1.41-.12,2.04-.63l.12.06-3.45,5.03Zm-3.22,7.36c-.83,0-1.5.29-2.07.69v.06c.46-.2.92-.26,1.35-.26.66,0,1.7.32,2.39,1.12l.66-.49c-.55-.63-1.21-1.12-2.33-1.12Zm3.08-4.83h-1.61l-3.37,4.86.03.06c.83-.6,1.64-1.01,2.62-1.01.86,0,1.75.4,2.3,1.09l.03-.03v-4.98Zm-4.2,0v-4.63l-.6.43v4.83h2.33l.46-.63h-2.19Zm6.01-5.64c-.6.43-.95.66-1.96.66-.57,0-1.26-.26-1.81-.83l-.06.03v4.2h1.09l2.76-4.03-.03-.03Zm-1.38-.26c-.52,0-1.18-.26-1.61-.83l-.72.49c.55.66,1.07.95,1.87.95.52,0,1.27-.14,2.04-.81l.03-.09c-.49.2-1.09.29-1.61.29Zm.49,4.95h-1.87l-.43.6h1.7v5.58l.6-.43v-5.75Zm6.96,7.79l-2.65-2.07-.55.6-.23-.23.63-.69v-10.07h-1.67l-.06-.06,1.01-1.5h.72v-1.93l3.05-3.25.06.06v5.12h2.3l.06.06-1.01,1.5h-1.35v8.72l1.58,1.21.6-.66.23.23-2.73,2.96Zm-1.87-16.42l-.6.66v1.75h.6v-2.42Zm0,13.75v-9.78h-.6v10.13l2.44,1.9.43-.46-2.27-1.78Z"/></svg>