<svg viewBox="0 0 102 29" fill="#000" xmlns="http://www.w3.org/2000/svg"><path d="M19.888 12.319h-8.55a.398.398 0 00-.397.398v4.178a.401.401 0 00.398.401h3.334v5.187s-.748.257-2.823.257c-2.443 0-5.853-.892-5.853-8.394s3.552-8.487 6.886-8.487c2.886 0 4.13.508 4.921.75a.401.401 0 00.478-.389l.962-4.037a.37.37 0 00-.152-.314C18.77 1.64 16.81.545 11.858.545 6.152.545.302 2.97.302 14.64c0 11.669 6.7 13.405 12.344 13.405 4.675 0 7.513-1.996 7.513-1.996a.346.346 0 00.127-.302V12.714a.398.398 0 00-.398-.395zM63.928 1.942a.395.395 0 00-.395-.4h-4.8a.398.398 0 00-.398.4v9.298h-7.51V1.942a.398.398 0 00-.399-.4h-4.8a.398.398 0 00-.398.4v25.18a.401.401 0 00.399.4h4.8a.4.4 0 00.398-.4V16.351h7.499l-.014 10.771a.404.404 0 00.4.4h4.823a.4.4 0 00.395-.4V1.942zM28.968 5.26a3.106 3.106 0 10-6.212.057 3.106 3.106 0 006.212-.057zM28.624 10.187a.401.401 0 00-.398-.401h-4.8a.455.455 0 00-.415.446v16.659c0 .488.305.635.697.635h4.323c.474 0 .59-.235.59-.644l.003-16.695zM82.207 9.823h-4.766a.404.404 0 00-.398.403v12.347a5.39 5.39 0 01-2.934.887c-1.722 0-2.18-.782-2.18-2.468V10.226a.401.401 0 00-.395-.403h-4.856a.404.404 0 00-.398.403v11.577c0 5.006 2.793 6.231 6.632 6.231 3.148 0 5.687-1.74 5.687-1.74.04.345.1.688.178 1.026a.414.414 0 00.35.217h3.083a.404.404 0 00.398-.404V10.227a.404.404 0 00-.247-.373.4.4 0 00-.154-.031zM95.266 9.258a8.965 8.965 0 00-4.555 1.211V1.942a.398.398 0 00-.398-.4h-4.825a.398.398 0 00-.398.4v25.18a.401.401 0 00.398.4h3.349a.4.4 0 00.35-.21c.096-.383.164-.772.203-1.164 0 0 1.976 1.872 5.706 1.872 4.385 0 6.901-2.225 6.901-9.987 0-7.761-4.015-8.775-6.731-8.775zm-1.884 14.188a5.714 5.714 0 01-2.778-.805v-7.973a6.364 6.364 0 012.468-.8c1.72-.155 3.388.365 3.388 4.467-.011 4.326-.76 5.179-3.078 5.11zM42.453 9.778h-3.608v-4.77c0-.18-.093-.282-.302-.282h-4.925c-.192 0-.282.085-.282.283v4.927s-2.465.595-2.631.643a.4.4 0 00-.283.384v3.106a.398.398 0 00.398.401h2.522v7.448c0 5.532 3.88 6.076 6.494 6.076.964-.032 1.92-.192 2.843-.474a.375.375 0 00.226-.361v-3.405a.407.407 0 00-.398-.404c-.212 0-.748.087-1.305.087-1.77 0-2.371-.824-2.371-1.891v-7.082h3.622a.398.398 0 00.398-.4v-3.88a.402.402 0 00-.398-.406z"></path></svg>
