<?xml version="1.0" encoding="UTF-8"?><svg id="Layer_1" xmlns="http://www.w3.org/2000/svg" viewBox="0 0 95.6 31.69"><path d="m93.42,10.93l-3.82-3.82h-7.1V2.18h-6.01v22.4h6.01v-11.47h4.92v11.47h6.01v-13.66h0Zm-19.12-3.82h-9.29l-3.82,3.82v9.83l3.82,3.83h9.29v-6.01h-7.1v-5.46h7.1v-6.01Zm-15.3,0h-4.92V2.18h-6.01v18.57l3.82,3.83h7.1v-6.01h-4.92v-5.46h4.92v-6.01Zm-13.11-4.92h-6.01v2.73h6.01v-2.73Zm0,4.92h-6.01v17.48h6.01V7.1Zm-8.19,0h-6.01v11.47h-2.18V7.1h-6.01v11.47h-2.18V7.1h-6.01v17.48h18.58l3.82-3.83V7.1Zm-24.58,0h-4.92V2.18H2.19v18.57l3.82,3.83h7.1v-6.01h-4.92v-5.46h4.92v-6.01Zm82.49,2.73v16.39l-8.19,5.46h-5.46v-2.73l-3.82,2.73h-4.92v-2.73l-2.73,2.73h-8.74l-2.73-2.73-.55,2.73h-7.65l-3.13-2.73-.18,2.73h-8.67l-.31-2.73-2.35,2.73h-13.24l-2.73-1.09v1.09h-7.1l-8.19-4.92L0,21.85V0h10.38l4.92,4.92h22.4V0h18.57v4.92h4.92v2.73l2.73-2.73h5.46l4.92-4.92h10.38v4.92h6.01l4.92,4.92Z"/></svg>