<?xml version="1.0" encoding="UTF-8"?><svg id="Layer_1" xmlns="http://www.w3.org/2000/svg" viewBox="0 0 1399.37 483.64"><defs><style>.cls-1{fill:#fff;}</style></defs><path class="cls-1" d="m798.57,389.19c.21.07.43.09.64.05.21-.04.43-.05.64-.05,1.21.14,2.34.38,3.37.7,1.03.32,2.05.91,3.05,1.77,1,1,1.5,2.25,1.5,3.75,0,.79-.13,1.62-.38,2.51-.25.89-.59,1.59-1.02,2.09-.57.57-1.28,1-2.14,1.28-.86.29-1.68.48-2.46.59-.79.11-1.48.16-2.09.16h-60.93c-.36,0-.71.02-1.07.05-.36.04-.71.05-1.07.05-1.5.07-3.1.05-4.81-.05-1.71-.11-3.17-.66-4.39-1.66-1.5-1.35-2.25-2.89-2.25-4.6,0-1.07.32-2.17.96-3.32.64-1.14,1.5-1.93,2.57-2.35,1.43-.57,2.91-.86,4.44-.86s3.08-.04,4.65-.11h.54c2.35-.07,4.8-.11,7.33-.11h7.54l-.11-13.27c0-.64.11-1.32.32-2.03.14-.57.41-1.18.8-1.82.39-.64.98-1.25,1.77-1.82.93-.64,2.03-1.03,3.32-1.18,1.28-.14,2.53-.02,3.74.38,1.21.39,2.25,1.03,3.1,1.93.86.89,1.28,1.98,1.28,3.26l.11,14.66h2.89c2.21,0,4.17-.02,5.88-.05,1.71-.04,3.35-.05,4.92-.05h4.76c1.61,0,3.37.04,5.3.11,1.28.07,2.53.05,3.75-.05,1.21-.11,2.39-.09,3.53.05Zm-48.04-49.22c-2.28,0-4.51-.05-6.69-.16-2.18-.11-4.62-.34-7.33-.7-1.36-.14-2.51-.89-3.48-2.25-.96-1.35-1.41-2.96-1.34-4.81,0-1.64.59-2.89,1.77-3.75,1.18-.86,2.41-1.46,3.69-1.82,1.57-.43,3.08-.68,4.55-.75,1.46-.07,3.01-.14,4.65-.21h5.99l24.82-.11c.43,0,.87-.02,1.34-.05.46-.04.91-.02,1.34.05h3.1c.71,0,1.39.02,2.03.05.64.04,1.32.05,2.03.05h1.93c.64,0,1.32.04,2.03.11h.91c.32,0,.66.07,1.02.21.14.07.32.14.54.21.21.07.39.14.53.21,1.5.71,2.64,1.71,3.42,3,.64,1.07,1.07,2.25,1.28,3.53s.32,2.53.32,3.75c0,1.71.02,3.57.05,5.56.04,2,.05,4.03.05,6.1v6.1c0,2-.04,3.85-.11,5.56-.07,1-.13,2.34-.16,4.01-.04,1.68-.11,3.42-.21,5.24-.11,1.82-.3,3.53-.59,5.13-.29,1.61-.68,2.87-1.18,3.8-.57,1.07-1.37,1.93-2.41,2.57-1.03.64-2.12,1.04-3.26,1.18-1.14.14-2.25.02-3.32-.37-1.07-.39-1.93-1.12-2.57-2.19s-1.09-2.35-1.34-3.85-.37-3.05-.37-4.65.05-3.19.16-4.76c.11-1.57.16-3,.16-4.28h-41.41c-1.5,0-3.05-.28-4.65-.86-1.6-.57-2.69-1.35-3.26-2.35-.21-.43-.41-.86-.59-1.28-.18-.43-.27-.96-.27-1.61,0-1.43.28-2.53.86-3.32.71-1.21,1.85-2.01,3.42-2.41,1.57-.39,3.03-.62,4.39-.7,2.42-.14,5.55-.27,9.36-.38,3.81-.11,7.72-.18,11.72-.21,3.99-.04,7.83-.07,11.5-.11,3.67-.03,6.65-.02,8.93.05v-4.33c0-1.46-.07-2.91-.21-4.33h-16.53c-2.39,0-4.69.02-6.9.05-2.21.04-4.19.05-5.94.05h-3.8Z"/><path class="cls-1" d="m885.45,389.19c.21.07.43.09.64.05.21-.04.43-.05.64-.05,1.21.14,2.34.38,3.37.7,1.03.32,2.05.91,3.05,1.77,1,1,1.5,2.25,1.5,3.75,0,.79-.13,1.62-.38,2.51-.25.89-.59,1.59-1.02,2.09-.57.57-1.28,1-2.14,1.28-.86.29-1.68.48-2.46.59-.79.11-1.48.16-2.09.16h-60.93c-.36,0-.71.02-1.07.05-.36.04-.71.05-1.07.05-1.5.07-3.1.05-4.81-.05-1.71-.11-3.17-.66-4.39-1.66-1.5-1.35-2.25-2.89-2.25-4.6,0-1.07.32-2.17.96-3.32.64-1.14,1.5-1.93,2.57-2.35,1.43-.57,2.91-.86,4.44-.86s3.08-.04,4.65-.11h.54c2.35-.07,4.8-.11,7.33-.11h7.54l-.11-13.27c0-.64.11-1.32.32-2.03.14-.57.41-1.18.8-1.82.39-.64.98-1.25,1.77-1.82.93-.64,2.03-1.03,3.32-1.18,1.28-.14,2.53-.02,3.74.38,1.21.39,2.25,1.03,3.1,1.93.86.89,1.28,1.98,1.28,3.26l.11,14.66h2.89c2.21,0,4.17-.02,5.88-.05,1.71-.04,3.35-.05,4.92-.05h4.76c1.61,0,3.37.04,5.3.11,1.28.07,2.53.05,3.75-.05,1.21-.11,2.39-.09,3.53.05Zm-48.04-49.22c-2.28,0-4.51-.05-6.69-.16-2.18-.11-4.62-.34-7.33-.7-1.36-.14-2.51-.89-3.48-2.25-.96-1.35-1.41-2.96-1.34-4.81,0-1.64.59-2.89,1.77-3.75,1.18-.86,2.41-1.46,3.69-1.82,1.57-.43,3.08-.68,4.55-.75,1.46-.07,3.01-.14,4.65-.21h5.99l24.82-.11c.43,0,.87-.02,1.34-.05.46-.04.91-.02,1.34.05h3.1c.71,0,1.39.02,2.03.05.64.04,1.32.05,2.03.05h1.93c.64,0,1.32.04,2.03.11h.91c.32,0,.66.07,1.02.21.14.07.32.14.54.21.21.07.39.14.53.21,1.5.71,2.64,1.71,3.42,3,.64,1.07,1.07,2.25,1.28,3.53s.32,2.53.32,3.75c0,1.71.02,3.57.05,5.56.04,2,.05,4.03.05,6.1v6.1c0,2-.04,3.85-.11,5.56-.07,1-.13,2.34-.16,4.01-.04,1.68-.11,3.42-.21,5.24-.11,1.82-.3,3.53-.59,5.13-.29,1.61-.68,2.87-1.18,3.8-.57,1.07-1.37,1.93-2.41,2.57-1.03.64-2.12,1.04-3.26,1.18-1.14.14-2.25.02-3.32-.37-1.07-.39-1.93-1.12-2.57-2.19s-1.09-2.35-1.34-3.85-.37-3.05-.37-4.65.05-3.19.16-4.76c.11-1.57.16-3,.16-4.28h-41.41c-1.5,0-3.05-.28-4.65-.86-1.6-.57-2.69-1.35-3.26-2.35-.21-.43-.41-.86-.59-1.28-.18-.43-.27-.96-.27-1.61,0-1.43.28-2.53.86-3.32.71-1.21,1.85-2.01,3.42-2.41,1.57-.39,3.03-.62,4.39-.7,2.42-.14,5.55-.27,9.36-.38,3.81-.11,7.72-.18,11.72-.21,3.99-.04,7.83-.07,11.5-.11,3.67-.03,6.65-.02,8.93.05v-4.33c0-1.46-.07-2.91-.21-4.33h-16.53c-2.39,0-4.69.02-6.9.05-2.21.04-4.19.05-5.94.05h-3.8Z"/><path class="cls-1" d="m967.3,375.49c1.14-.07,2.34-.05,3.58.05,1.25.11,2.41.38,3.48.8s1.94,1.07,2.62,1.93c.68.86,1.02,2.03,1.02,3.53,0,1.78-.61,3.12-1.82,4.01-1.21.89-2.66,1.53-4.33,1.93-1.68.39-3.42.61-5.24.64-1.82.04-3.3.05-4.44.05-.36,0-.68.02-.96.05-.29.04-.61.05-.96.05.07,2.28.12,4.73.16,7.33.04,2.6-.05,4.8-.27,6.58-.21,1.36-.57,2.66-1.07,3.91-.5,1.25-1.36,2.26-2.57,3.05-1.07.71-2.32,1.07-3.75,1.07s-2.71-.32-3.85-.96c-.93-.57-1.62-1.39-2.09-2.46-.46-1.07-.8-2.1-1.02-3.1-.14-.78-.18-1.64-.11-2.57.07-.93.07-1.78,0-2.57v-10.27l-14.12-.11c.07,2.21.14,4.62.21,7.22.07,2.61-.04,4.83-.32,6.69-.21,1.36-.57,2.66-1.07,3.91-.5,1.25-1.36,2.26-2.57,3.05-1.07.71-2.32,1.07-3.74,1.07s-2.71-.32-3.85-.96c-.93-.57-1.62-1.39-2.09-2.46-.46-1.07-.8-2.1-1.02-3.1-.14-.78-.18-1.64-.11-2.57.07-.93.07-1.78,0-2.57v-10.27l-8.67.11c-1.64,0-3.21-.21-4.71-.64-1.5-.43-2.67-1.35-3.53-2.78-.79-1.21-1.16-2.5-1.12-3.85.04-1.35.55-2.57,1.55-3.64.5-.57,1.18-1,2.03-1.28.86-.28,1.69-.48,2.51-.59.82-.11,1.53-.16,2.14-.16h1.02l59.06-.11Zm-17.65-8.24c-1.28.07-3.09.13-5.4.16-2.32.04-4.74.05-7.28.05s-4.96-.02-7.28-.05c-2.32-.04-4.12-.09-5.4-.16-1.86-.14-3.67-.16-5.46-.05-1.78.11-3.57.09-5.35-.05-1.86-.14-3.55-.59-5.08-1.34-1.53-.75-2.48-2.12-2.83-4.12-.36-2-.59-3.55-.7-4.65-.11-1.1-.18-2.12-.21-3.05-.04-.93-.04-1.94,0-3.05.04-1.1.05-2.69.05-4.76v-7.49c0-.93-.02-1.96-.05-3.1-.04-1.14.04-2.28.21-3.42.18-1.14.5-2.18.96-3.1.46-.93,1.19-1.64,2.19-2.14,2.14-1.07,4.55-1.71,7.22-1.93s5.19-.32,7.54-.32h34.45c.07,0,.46.02,1.18.05.71.04,1.59.14,2.62.32,1.03.18,2.09.39,3.16.64,1.07.25,1.96.59,2.67,1.02.86.5,1.53,1.3,2.03,2.41.5,1.11.87,2.23,1.12,3.37.25,1.14.39,2.16.43,3.05.04.89.05,1.37.05,1.44v14.02c0,1.64-.02,3.28-.05,4.92-.04,1.64-.2,3.28-.48,4.92-.14,1-.39,2-.75,3-.36,1-1.03,1.75-2.03,2.25-1.21.57-2.62.87-4.23.91-1.6.04-3.05.02-4.33-.05-1.5,0-3,.05-4.49.16s-3,.16-4.49.16Zm.96-13.48c.64-.14,1.28-.18,1.93-.11.64.07,1.32-.04,2.03-.32.43-.21.75-.52.96-.91.21-.39.34-.82.38-1.28.04-.46.04-.94,0-1.44-.04-.5-.05-.96-.05-1.39v-5.3c0-.82-.16-1.48-.48-1.98-.32-.5-.95-.86-1.87-1.07-.93-.21-2.28-.36-4.07-.43h-20.97c-1.07,0-1.98.02-2.73.05-.75.04-1.52.09-2.3.16-.79.07-1.46.14-2.03.21-.93.14-1.68.54-2.25,1.18-.57.64-.86,1.43-.86,2.35l.21,7.7c.14.86.52,1.48,1.12,1.87.61.39,1.3.66,2.09.8.78.14,1.59.2,2.41.16.82-.04,1.55-.05,2.19-.05l24.29-.21Z"/><path class="cls-1" d="m991.47,401.49c-1.14-.07-2.26-.23-3.37-.48-1.11-.25-2.09-.6-2.94-1.07-.86-.46-1.55-1.12-2.09-1.98-.54-.86-.8-2-.8-3.42s.46-2.67,1.39-3.74c.57-.57,1.28-1,2.14-1.28.86-.28,1.67-.5,2.46-.64.78-.14,1.48-.21,2.09-.21h1.02l59.59.11c1.85,0,3.55.02,5.08.05,1.53.04,2.91.55,4.12,1.55,1.5,1.36,2.25,2.89,2.25,4.6,0,1.07-.32,2.05-.96,2.94-.64.89-1.5,1.52-2.57,1.87-1.43.57-2.91.96-4.44,1.18-1.53.21-3.05.36-4.55.43-5.21.21-10.52.29-15.94.21-5.42-.07-10.52-.11-15.3-.11-5.14,0-10.15.04-15.03.11-4.89.07-8.93.04-12.14-.11Zm55.85-74.79c1.28,0,2.5.07,3.64.21,1.14.14,2.14.43,3,.86.86.43,1.53,1.02,2.03,1.76.5.75.75,1.73.75,2.94.07,1.78-.16,3.16-.7,4.12s-1.28,1.66-2.25,2.09c-.96.43-2.05.66-3.26.7-1.21.04-2.43.02-3.64-.05l-16.05.21.11,4.07c0,.57-.04,1.25-.11,2.03-.07.79-.04,1.46.11,2.03.21.79.61,1.44,1.18,1.98.57.53,1.11,1.09,1.61,1.66,2.07,2.43,4.47,4.6,7.22,6.53,2.75,1.93,5.47,4.07,8.18,6.42.64.71,1.35,1.48,2.14,2.3.78.82,1.46,1.71,2.03,2.67.57.96.94,1.94,1.12,2.94.18,1,.02,2.03-.48,3.1-.57,1.14-1.37,1.93-2.41,2.35-1.03.43-2.12.61-3.26.53-1.14-.07-2.3-.3-3.48-.7-1.18-.39-2.19-.87-3.05-1.44-3.42-2.21-6.6-4.56-9.52-7.06-2.93-2.5-5.85-5.1-8.77-7.81-.07-.07-.62.3-1.66,1.12-1.04.82-2.27,1.8-3.69,2.94-1.43,1.14-2.91,2.34-4.44,3.58-1.53,1.25-2.8,2.27-3.8,3.05-1.14.86-2.5,1.94-4.07,3.26-1.57,1.32-3.21,2.41-4.92,3.26-1.71.86-3.41,1.25-5.08,1.18-1.68-.07-3.19-1.03-4.55-2.89-.93-1.43-1.32-2.75-1.18-3.96.14-1.21.57-2.32,1.28-3.32.71-1,1.62-1.93,2.73-2.78,1.1-.86,2.19-1.64,3.26-2.35,2.78-1.85,5.54-4.03,8.29-6.53,2.75-2.5,5.33-4.96,7.76-7.38.93-.93,1.39-1.85,1.39-2.78v-8.24h-16.9c-1.78.07-3.39-.04-4.81-.32-1.21-.28-2.35-.82-3.42-1.6-1.07-.78-1.68-2-1.82-3.64-.21-2.35.28-4.03,1.5-5.03,1.21-1,2.71-1.57,4.49-1.71.5-.07,1.34-.11,2.51-.11h2.73l48.25-.21Z"/><path class="cls-1" d="m418.11,225.98v-61.14c0-43.63,17.85-65.45,53.55-65.45,7.52,0,14.21,1.01,20.05,3.03,5.85,2.02,10.75,4.8,14.72,8.36,3.97,3.56,7.23,7.93,9.8,13.13,2.56,5.2,4.41,10.84,5.54,16.93,1.13,6.09,1.69,12.79,1.69,20.11v15.9h-36.72v-17.03c0-3.35-.07-6.24-.21-8.67-.14-2.43-.5-5.2-1.08-8.31-.58-3.11-1.37-5.64-2.36-7.59-.99-1.95-2.46-3.61-4.41-4.98-1.95-1.37-4.29-2.05-7.03-2.05-10.81,0-16.21,9.1-16.21,27.29v79.7c0,18.12,5.4,27.18,16.21,27.18,3.21,0,5.91-.92,8.1-2.77,2.19-1.85,3.76-4.46,4.72-7.85.96-3.38,1.61-6.7,1.95-9.95.34-3.25.51-6.96.51-11.13v-18.98h36.52v15.59c-.14,7.04-.72,13.54-1.74,19.49-1.03,5.95-2.77,11.73-5.23,17.34-2.46,5.61-5.59,10.34-9.39,14.21-3.79,3.86-8.7,6.98-14.72,9.33-6.02,2.36-12.93,3.54-20.72,3.54s-15.1-1.15-21.29-3.44c-6.19-2.29-11.28-5.37-15.28-9.23-4-3.86-7.3-8.62-9.9-14.26-2.6-5.64-4.43-11.57-5.49-17.8-1.06-6.22-1.59-13.06-1.59-20.52Z"/><path class="cls-1" d="m538.53,226.91v-62.06c0-43.63,17.99-65.45,53.96-65.45s54.06,21.82,54.06,65.45v61.14c0,7.39-.55,14.21-1.64,20.46-1.09,6.26-2.96,12.19-5.59,17.8-2.63,5.61-5.99,10.38-10.05,14.31-4.07,3.93-9.22,7.03-15.44,9.28-6.22,2.26-13.33,3.38-21.34,3.38s-15.01-1.11-21.23-3.33c-6.22-2.22-11.35-5.23-15.39-9.03-4.04-3.8-7.37-8.45-10-13.95-2.63-5.5-4.51-11.37-5.64-17.59-1.13-6.22-1.69-13.03-1.69-20.41Zm70.68,8.41v-79.81c0-18.19-5.57-27.29-16.72-27.29-3.35,0-6.19.84-8.51,2.51-2.33,1.68-4.04,3.97-5.13,6.87-1.09,2.91-1.86,5.78-2.31,8.62-.45,2.84-.67,5.93-.67,9.28v79.81c0,18.12,5.54,27.18,16.62,27.18s16.72-9.06,16.72-27.18Z"/><path class="cls-1" d="m663.78,225.98v-61.14c0-43.63,17.85-65.45,53.55-65.45,7.52,0,14.21,1.01,20.05,3.03,5.85,2.02,10.75,4.8,14.72,8.36,3.97,3.56,7.23,7.93,9.8,13.13,2.56,5.2,4.41,10.84,5.54,16.93,1.13,6.09,1.69,12.79,1.69,20.11v15.9h-36.72v-17.03c0-3.35-.07-6.24-.21-8.67-.14-2.43-.5-5.2-1.08-8.31-.58-3.11-1.37-5.64-2.36-7.59-.99-1.95-2.46-3.61-4.41-4.98-1.95-1.37-4.29-2.05-7.03-2.05-10.81,0-16.21,9.1-16.21,27.29v79.7c0,18.12,5.4,27.18,16.21,27.18,3.21,0,5.91-.92,8.1-2.77,2.19-1.85,3.76-4.46,4.72-7.85.96-3.38,1.61-6.7,1.95-9.95.34-3.25.51-6.96.51-11.13v-18.98h36.52v15.59c-.14,7.04-.72,13.54-1.74,19.49-1.03,5.95-2.77,11.73-5.23,17.34-2.46,5.61-5.59,10.34-9.39,14.21-3.79,3.86-8.7,6.98-14.72,9.33-6.02,2.36-12.93,3.54-20.72,3.54s-15.1-1.15-21.29-3.44c-6.19-2.29-11.28-5.37-15.28-9.23-4-3.86-7.3-8.62-9.9-14.26-2.6-5.64-4.43-11.57-5.49-17.8-1.06-6.22-1.59-13.06-1.59-20.52Z"/><path class="cls-1" d="m784.21,226.91v-62.06c0-43.63,17.99-65.45,53.96-65.45s54.06,21.82,54.06,65.45v61.14c0,7.39-.55,14.21-1.64,20.46-1.09,6.26-2.96,12.19-5.59,17.8-2.63,5.61-5.99,10.38-10.05,14.31-4.07,3.93-9.22,7.03-15.44,9.28-6.22,2.26-13.33,3.38-21.34,3.38s-15.01-1.11-21.23-3.33c-6.22-2.22-11.35-5.23-15.39-9.03-4.04-3.8-7.37-8.45-10-13.95-2.63-5.5-4.51-11.37-5.64-17.59-1.13-6.22-1.69-13.03-1.69-20.41Zm70.68,8.41v-79.81c0-18.19-5.57-27.29-16.72-27.29-3.35,0-6.19.84-8.51,2.51-2.33,1.68-4.04,3.97-5.13,6.87-1.09,2.91-1.86,5.78-2.31,8.62-.45,2.84-.67,5.93-.67,9.28v79.81c0,18.12,5.54,27.18,16.62,27.18s16.72-9.06,16.72-27.18Z"/><path class="cls-1" d="m911.82,287.63V102.99h44.73l19.7,123.1,21.23-123.1h43.19v184.64h-27.49l-.82-129.87c-2.05,13.33-5.64,34.98-10.77,64.93s-8.72,51.6-10.77,64.93h-27.9l-22.67-130.69-.82,130.69h-27.59Z"/><path class="cls-1" d="m1061.79,219.01v-116.02h37.34v114.89c0,6.57.03,11.33.1,14.31.07,2.97.24,6.6.51,10.87.27,4.27.75,7.27,1.44,8.98.68,1.71,1.62,3.56,2.82,5.54,1.2,1.98,2.75,3.28,4.67,3.9,1.91.62,4.24.92,6.98.92s5.06-.31,6.98-.92c1.91-.62,3.47-1.9,4.67-3.85,1.2-1.95,2.14-3.78,2.82-5.49.68-1.71,1.16-4.67,1.44-8.87.27-4.21.44-7.76.51-10.67.07-2.91.1-7.61.1-14.1v-115.5h37.34v116.02c0,5.88-.17,11.22-.51,16-.34,4.79-.99,9.75-1.95,14.87-.96,5.13-2.26,9.66-3.9,13.59-1.64,3.93-3.83,7.69-6.56,11.28-2.74,3.59-5.97,6.55-9.69,8.87-3.73,2.33-8.22,4.17-13.49,5.54-5.27,1.37-11.18,2.05-17.75,2.05s-12.48-.68-17.75-2.05c-5.27-1.37-9.75-3.21-13.44-5.54-3.69-2.32-6.91-5.28-9.64-8.87-2.74-3.59-4.92-7.35-6.56-11.28-1.64-3.93-2.96-8.46-3.95-13.59-.99-5.13-1.66-10.09-2-14.87-.34-4.79-.51-10.12-.51-16Z"/><path class="cls-1" d="m1184.27,234.81l37.85-7.28c0,3.76.07,7.08.21,9.95.14,2.87.5,6,1.08,9.39.58,3.39,1.37,6.16,2.36,8.31.99,2.15,2.39,3.97,4.21,5.44,1.81,1.47,3.95,2.21,6.41,2.21,7.39,0,11.08-4.72,11.08-14.16,0-12.92-7.28-25.78-21.85-38.57l-11.59-9.85c-3.69-3.08-6.63-5.64-8.82-7.69-2.19-2.05-4.77-4.82-7.74-8.31-2.97-3.49-5.3-6.85-6.98-10.1-1.68-3.25-3.11-7.16-4.31-11.75-1.2-4.58-1.79-9.44-1.79-14.57,0-14.98,4.75-26.83,14.26-35.54,9.5-8.72,22.12-13.08,37.85-13.08,13.06,0,24.17,4.65,33.34,13.95,9.16,9.3,13.75,20.52,13.75,33.65l-.1,1.33v3.08l-38.57,5.33c0-.75.05-1.93.15-3.54.1-1.61.15-2.92.15-3.95,0-2.46-.17-4.82-.51-7.08-.34-2.26-.91-4.51-1.69-6.77-.79-2.26-2-4.05-3.64-5.38-1.64-1.33-3.62-2-5.95-2-4.1,0-7.18,1.61-9.23,4.82-2.05,3.22-3.08,7.01-3.08,11.39,0,3.83.6,7.42,1.79,10.77,1.2,3.35,3.01,6.48,5.44,9.39,2.43,2.91,4.67,5.32,6.72,7.23,2.05,1.92,4.79,4.26,8.21,7.03,3.42,2.77,5.85,4.8,7.28,6.1,5.26,4.65,9.71,9.01,13.33,13.08,3.62,4.07,7.04,8.67,10.26,13.8,3.21,5.13,5.62,10.67,7.23,16.62,1.61,5.95,2.41,12.38,2.41,19.29,0,12.92-4.62,23.51-13.85,31.75-9.23,8.24-20.45,12.36-33.65,12.36-8.55,0-16.14-1.57-22.77-4.72-6.63-3.15-11.99-7.42-16.05-12.82-4.07-5.4-7.2-11.39-9.39-17.95-2.19-6.56-3.45-13.61-3.79-21.13Z"/><path class="cls-1" d="m1298.65,287.63V102.99h77.04v25.65h-39.7v50.26h28.11v26.26h-28.11v56.83h39.7v25.64h-77.04Z"/><path class="cls-1" d="m230.11,237.12H21.53v31.95h208.57c21.39,0,38.79,16.3,38.79,36.33v1.1H21.53v31.95h247.36v54.43h31.95v-87.48c0-37.65-31.73-68.29-70.74-68.29Z"/><path class="cls-1" d="m304.04,396.09h-38.34v-54.43H18.34v-38.34h247.29c-1.16-17.3-16.65-31.05-35.52-31.05H18.34v-38.34h211.77c40.77,0,73.93,32.07,73.93,71.48v90.68Zm-31.95-6.39h25.56v-84.29c0-35.89-30.3-65.09-67.54-65.09H24.73v25.56h205.38c23.15,0,41.98,17.73,41.98,39.53v4.3H24.73v25.56h247.36v54.43Z"/><polygon class="cls-1" points="177.21 420.78 177.21 380.03 145.26 380.03 145.26 420.78 21.53 420.78 21.53 452.73 300.94 452.73 300.94 420.78 177.21 420.78"/><path class="cls-1" d="m304.13,455.93H18.34v-38.34h123.73v-40.75h38.34v40.75h123.72v38.34Zm-279.4-6.39h273.01v-25.56h-123.72v-40.75h-25.56v40.75H24.73v25.56Z"/><path class="cls-1" d="m109.53,201.51c-48.54,0-88.03-39.49-88.03-88.03S60.99,25.45,109.53,25.45v31.95c-30.92,0-56.08,25.16-56.08,56.08s25.16,56.08,56.08,56.08v31.95Z"/><path class="cls-1" d="m112.73,204.71h-3.2c-50.3,0-91.23-40.92-91.23-91.23S59.23,22.25,109.53,22.25h3.2v38.34h-3.2c-29.16,0-52.88,23.72-52.88,52.88s23.72,52.88,52.88,52.88h3.2v38.34Zm-6.39-176.01c-45.3,1.69-81.64,39.07-81.64,84.78s36.34,83.09,81.64,84.78v-25.59c-31.21-1.66-56.08-27.58-56.08-59.19s24.87-57.52,56.08-59.19v-25.59Z"/><path class="cls-1" d="m215.38,201.51c-48.54,0-88.03-39.49-88.03-88.03S166.84,25.45,215.38,25.45s88.03,39.49,88.03,88.03-39.49,88.03-88.03,88.03Zm0-144.11c-30.92,0-56.08,25.16-56.08,56.08s25.16,56.08,56.08,56.08,56.08-25.16,56.08-56.08-25.16-56.08-56.08-56.08Z"/><path class="cls-1" d="m215.38,204.71c-50.3,0-91.23-40.92-91.23-91.23S165.08,22.25,215.38,22.25s91.23,40.92,91.23,91.23-40.92,91.23-91.23,91.23Zm0-176.07c-46.78,0-84.84,38.06-84.84,84.84s38.06,84.84,84.84,84.84,84.84-38.06,84.84-84.84-38.06-84.84-84.84-84.84Zm0,144.11c-32.68,0-59.27-26.59-59.27-59.28s26.59-59.27,59.27-59.27,59.27,26.59,59.27,59.27-26.59,59.28-59.27,59.28Zm0-112.16c-29.16,0-52.88,23.72-52.88,52.88s23.72,52.88,52.88,52.88,52.88-23.72,52.88-52.88-23.72-52.88-52.88-52.88Z"/><circle class="cls-1" cx="85.9" cy="381.11" r="21.07"/><circle class="cls-1" cx="230.16" cy="381.11" r="21.07"/></svg>